G75*
%MOIN*%
%OFA0B0*%
%FSLAX25Y25*%
%IPPOS*%
%LPD*%
%AMOC8*
5,1,8,0,0,1.08239X$1,22.5*
%
%ADD10C,0.00400*%
%ADD11C,0.00300*%
%ADD12R,0.02000X0.02000*%
%ADD13C,0.00600*%
%ADD14C,0.00500*%
%ADD15C,0.00800*%
%ADD16C,0.00100*%
%ADD17R,0.02000X0.08000*%
%ADD18R,0.07500X0.02000*%
D10*
X0131196Y0087367D02*
X0131196Y0090436D01*
X0131196Y0088901D02*
X0135800Y0088901D01*
X0135033Y0091971D02*
X0133498Y0091971D01*
X0132731Y0092738D01*
X0132731Y0094273D01*
X0133498Y0095040D01*
X0134265Y0095040D01*
X0134265Y0091971D01*
X0135033Y0091971D02*
X0135800Y0092738D01*
X0135800Y0094273D01*
X0135033Y0096575D02*
X0133498Y0096575D01*
X0132731Y0097342D01*
X0132731Y0098876D01*
X0133498Y0099644D01*
X0134265Y0099644D01*
X0134265Y0096575D01*
X0135033Y0096575D02*
X0135800Y0097342D01*
X0135800Y0098876D01*
X0135800Y0101178D02*
X0132731Y0101178D01*
X0132731Y0103480D01*
X0133498Y0104248D01*
X0135800Y0104248D01*
X0135800Y0105782D02*
X0135800Y0108084D01*
X0135033Y0108852D01*
X0134265Y0108084D01*
X0134265Y0106550D01*
X0133498Y0105782D01*
X0132731Y0106550D01*
X0132731Y0108852D01*
X0132731Y0110386D02*
X0135033Y0110386D01*
X0135800Y0111154D01*
X0135800Y0113456D01*
X0136567Y0113456D02*
X0137335Y0112688D01*
X0137335Y0111921D01*
X0136567Y0113456D02*
X0132731Y0113456D01*
X0085873Y0162832D02*
X0085873Y0167436D01*
X0088175Y0167436D01*
X0088942Y0166669D01*
X0088942Y0165134D01*
X0088175Y0164367D01*
X0085873Y0164367D01*
X0084339Y0164367D02*
X0082804Y0164367D01*
X0083571Y0164367D02*
X0083571Y0168971D01*
X0082804Y0168971D01*
X0081269Y0167436D02*
X0081269Y0164367D01*
X0081269Y0166669D02*
X0078200Y0166669D01*
X0078200Y0167436D02*
X0078200Y0164367D01*
X0078200Y0167436D02*
X0079735Y0168971D01*
X0081269Y0167436D01*
X0090477Y0166669D02*
X0091244Y0167436D01*
X0092779Y0167436D01*
X0093546Y0166669D01*
X0093546Y0164367D01*
X0095081Y0165134D02*
X0095848Y0165901D01*
X0098150Y0165901D01*
X0098150Y0166669D02*
X0098150Y0164367D01*
X0095848Y0164367D01*
X0095081Y0165134D01*
X0097383Y0167436D02*
X0098150Y0166669D01*
X0097383Y0167436D02*
X0095848Y0167436D01*
X0099685Y0166669D02*
X0100452Y0167436D01*
X0102754Y0167436D01*
X0101987Y0165901D02*
X0100452Y0165901D01*
X0099685Y0166669D01*
X0099685Y0164367D02*
X0101987Y0164367D01*
X0102754Y0165134D01*
X0101987Y0165901D01*
X0104289Y0165901D02*
X0107358Y0165901D01*
X0107358Y0166669D01*
X0106591Y0167436D01*
X0105056Y0167436D01*
X0104289Y0166669D01*
X0104289Y0165134D01*
X0105056Y0164367D01*
X0106591Y0164367D01*
X0108893Y0164367D02*
X0108893Y0167436D01*
X0111195Y0167436D01*
X0111962Y0166669D01*
X0111962Y0164367D01*
X0113497Y0164367D02*
X0115799Y0164367D01*
X0116566Y0165134D01*
X0115799Y0165901D01*
X0114264Y0165901D01*
X0113497Y0166669D01*
X0114264Y0167436D01*
X0116566Y0167436D01*
X0118101Y0166669D02*
X0118868Y0167436D01*
X0120403Y0167436D01*
X0121170Y0166669D01*
X0121170Y0165901D01*
X0118101Y0165901D01*
X0118101Y0165134D02*
X0118101Y0166669D01*
X0118101Y0165134D02*
X0118868Y0164367D01*
X0120403Y0164367D01*
X0090477Y0164367D02*
X0090477Y0168971D01*
X0023498Y0116921D02*
X0021963Y0118456D01*
X0021196Y0118456D01*
X0023498Y0116921D02*
X0025800Y0116921D01*
X0023498Y0116921D02*
X0021963Y0115386D01*
X0021196Y0115386D01*
X0021963Y0113852D02*
X0021196Y0113084D01*
X0021196Y0111550D01*
X0021963Y0110782D01*
X0022731Y0110782D01*
X0023498Y0111550D01*
X0023498Y0113084D01*
X0024265Y0113852D01*
X0025033Y0113852D01*
X0025800Y0113084D01*
X0025800Y0111550D01*
X0025033Y0110782D01*
X0025800Y0109248D02*
X0021196Y0109248D01*
X0021196Y0106178D02*
X0025800Y0109248D01*
X0025800Y0106178D02*
X0021196Y0106178D01*
X0021196Y0104644D02*
X0021196Y0101575D01*
X0025800Y0101575D01*
X0025800Y0104644D01*
X0023498Y0103109D02*
X0023498Y0101575D01*
X0021196Y0100040D02*
X0021196Y0096971D01*
X0025800Y0096971D01*
X0025800Y0100040D01*
X0023498Y0098505D02*
X0023498Y0096971D01*
X0021196Y0095436D02*
X0021196Y0092367D01*
X0021196Y0093901D02*
X0025800Y0093901D01*
D11*
X0095150Y0057219D02*
X0095150Y0055284D01*
X0096117Y0054317D01*
X0097085Y0055284D01*
X0097085Y0057219D01*
X0098097Y0057219D02*
X0099064Y0057219D01*
X0098580Y0057219D02*
X0098580Y0054317D01*
X0098097Y0054317D02*
X0099064Y0054317D01*
X0100061Y0054317D02*
X0100061Y0057219D01*
X0101996Y0054317D01*
X0101996Y0057219D01*
X0133150Y0056768D02*
X0134117Y0057252D01*
X0134601Y0057252D01*
X0135085Y0056768D01*
X0135085Y0055800D01*
X0134601Y0055317D01*
X0133634Y0055317D01*
X0133150Y0055800D01*
X0133150Y0056768D02*
X0133150Y0058219D01*
X0135085Y0058219D01*
X0136097Y0058219D02*
X0136097Y0056284D01*
X0137064Y0055317D01*
X0138031Y0056284D01*
X0138031Y0058219D01*
X0193150Y0014735D02*
X0193150Y0012800D01*
X0193634Y0012317D01*
X0194601Y0012317D01*
X0195085Y0012800D01*
X0195085Y0013768D01*
X0194117Y0013768D01*
X0193150Y0014735D02*
X0193634Y0015219D01*
X0194601Y0015219D01*
X0195085Y0014735D01*
X0196097Y0015219D02*
X0198031Y0012317D01*
X0198031Y0015219D01*
X0199043Y0015219D02*
X0200494Y0015219D01*
X0200978Y0014735D01*
X0200978Y0012800D01*
X0200494Y0012317D01*
X0199043Y0012317D01*
X0199043Y0015219D01*
X0196097Y0015219D02*
X0196097Y0012317D01*
X0179451Y0008219D02*
X0179451Y0006284D01*
X0178484Y0005317D01*
X0177516Y0006284D01*
X0177516Y0008219D01*
X0176505Y0007735D02*
X0176505Y0007252D01*
X0176021Y0006768D01*
X0176505Y0006284D01*
X0176505Y0005800D01*
X0176021Y0005317D01*
X0175054Y0005317D01*
X0174570Y0005800D01*
X0173580Y0005800D02*
X0173580Y0005317D01*
X0173097Y0005317D01*
X0173097Y0005800D01*
X0173580Y0005800D01*
X0172085Y0005800D02*
X0171601Y0005317D01*
X0170634Y0005317D01*
X0170150Y0005800D01*
X0171117Y0006768D02*
X0171601Y0006768D01*
X0172085Y0006284D01*
X0172085Y0005800D01*
X0171601Y0006768D02*
X0172085Y0007252D01*
X0172085Y0007735D01*
X0171601Y0008219D01*
X0170634Y0008219D01*
X0170150Y0007735D01*
X0174570Y0007735D02*
X0175054Y0008219D01*
X0176021Y0008219D01*
X0176505Y0007735D01*
X0176021Y0006768D02*
X0175537Y0006768D01*
X0218634Y0078317D02*
X0218150Y0078800D01*
X0218634Y0078317D02*
X0219601Y0078317D01*
X0220085Y0078800D01*
X0220085Y0079768D01*
X0219601Y0080252D01*
X0219117Y0080252D01*
X0218150Y0079768D01*
X0218150Y0081219D01*
X0220085Y0081219D01*
X0221097Y0081219D02*
X0221097Y0079284D01*
X0222064Y0078317D01*
X0223031Y0079284D01*
X0223031Y0081219D01*
X0235150Y0080735D02*
X0235150Y0078800D01*
X0235634Y0078317D01*
X0236601Y0078317D01*
X0237085Y0078800D01*
X0237085Y0079768D01*
X0236117Y0079768D01*
X0235150Y0080735D02*
X0235634Y0081219D01*
X0236601Y0081219D01*
X0237085Y0080735D01*
X0238097Y0081219D02*
X0240031Y0078317D01*
X0240031Y0081219D01*
X0241043Y0081219D02*
X0242494Y0081219D01*
X0242978Y0080735D01*
X0242978Y0078800D01*
X0242494Y0078317D01*
X0241043Y0078317D01*
X0241043Y0081219D01*
X0238097Y0081219D02*
X0238097Y0078317D01*
X0279150Y0091800D02*
X0279634Y0091317D01*
X0280601Y0091317D01*
X0281085Y0091800D01*
X0281085Y0092768D01*
X0280117Y0092768D01*
X0279150Y0093735D02*
X0279150Y0091800D01*
X0282097Y0091317D02*
X0282097Y0094219D01*
X0284031Y0091317D01*
X0284031Y0094219D01*
X0285043Y0094219D02*
X0286494Y0094219D01*
X0286978Y0093735D01*
X0286978Y0091800D01*
X0286494Y0091317D01*
X0285043Y0091317D01*
X0285043Y0094219D01*
X0281085Y0093735D02*
X0280601Y0094219D01*
X0279634Y0094219D01*
X0279150Y0093735D01*
X0282634Y0102317D02*
X0282150Y0102800D01*
X0282634Y0102317D02*
X0283601Y0102317D01*
X0284085Y0102800D01*
X0284085Y0103768D01*
X0283601Y0104252D01*
X0283117Y0104252D01*
X0282150Y0103768D01*
X0282150Y0105219D01*
X0284085Y0105219D01*
X0285097Y0105219D02*
X0285097Y0103284D01*
X0286064Y0102317D01*
X0287031Y0103284D01*
X0287031Y0105219D01*
X0272117Y0125800D02*
X0272117Y0127735D01*
X0271150Y0126768D02*
X0273085Y0126768D01*
X0279634Y0153317D02*
X0279150Y0153800D01*
X0279634Y0153317D02*
X0280601Y0153317D01*
X0281085Y0153800D01*
X0281085Y0154284D01*
X0280601Y0154768D01*
X0280117Y0154768D01*
X0280601Y0154768D02*
X0281085Y0155252D01*
X0281085Y0155735D01*
X0280601Y0156219D01*
X0279634Y0156219D01*
X0279150Y0155735D01*
X0282097Y0153800D02*
X0282580Y0153800D01*
X0282580Y0153317D01*
X0282097Y0153317D01*
X0282097Y0153800D01*
X0283570Y0153800D02*
X0284054Y0153317D01*
X0285021Y0153317D01*
X0285505Y0153800D01*
X0285505Y0154284D01*
X0285021Y0154768D01*
X0284537Y0154768D01*
X0285021Y0154768D02*
X0285505Y0155252D01*
X0285505Y0155735D01*
X0285021Y0156219D01*
X0284054Y0156219D01*
X0283570Y0155735D01*
X0286516Y0156219D02*
X0286516Y0154284D01*
X0287484Y0153317D01*
X0288451Y0154284D01*
X0288451Y0156219D01*
X0286494Y0163317D02*
X0286978Y0163800D01*
X0286978Y0165735D01*
X0286494Y0166219D01*
X0285043Y0166219D01*
X0285043Y0163317D01*
X0286494Y0163317D01*
X0284031Y0163317D02*
X0284031Y0166219D01*
X0282097Y0166219D02*
X0284031Y0163317D01*
X0282097Y0163317D02*
X0282097Y0166219D01*
X0281085Y0165735D02*
X0280601Y0166219D01*
X0279634Y0166219D01*
X0279150Y0165735D01*
X0279150Y0163800D01*
X0279634Y0163317D01*
X0280601Y0163317D01*
X0281085Y0163800D01*
X0281085Y0164768D01*
X0280117Y0164768D01*
X0259978Y0172800D02*
X0259978Y0174735D01*
X0259494Y0175219D01*
X0258043Y0175219D01*
X0258043Y0172317D01*
X0259494Y0172317D01*
X0259978Y0172800D01*
X0257031Y0172317D02*
X0257031Y0175219D01*
X0255097Y0175219D02*
X0257031Y0172317D01*
X0255097Y0172317D02*
X0255097Y0175219D01*
X0254085Y0174735D02*
X0253601Y0175219D01*
X0252634Y0175219D01*
X0252150Y0174735D01*
X0252150Y0172800D01*
X0252634Y0172317D01*
X0253601Y0172317D01*
X0254085Y0172800D01*
X0254085Y0173768D01*
X0253117Y0173768D01*
X0246031Y0173284D02*
X0245064Y0172317D01*
X0244097Y0173284D01*
X0244097Y0175219D01*
X0243085Y0175219D02*
X0241150Y0175219D01*
X0241150Y0173768D01*
X0242117Y0174252D01*
X0242601Y0174252D01*
X0243085Y0173768D01*
X0243085Y0172800D01*
X0242601Y0172317D01*
X0241634Y0172317D01*
X0241150Y0172800D01*
X0246031Y0173284D02*
X0246031Y0175219D01*
X0221494Y0143219D02*
X0220043Y0143219D01*
X0220043Y0140317D01*
X0221494Y0140317D01*
X0221978Y0140800D01*
X0221978Y0142735D01*
X0221494Y0143219D01*
X0219031Y0143219D02*
X0219031Y0140317D01*
X0217097Y0143219D01*
X0217097Y0140317D01*
X0216085Y0140800D02*
X0216085Y0141768D01*
X0215117Y0141768D01*
X0214150Y0142735D02*
X0214150Y0140800D01*
X0214634Y0140317D01*
X0215601Y0140317D01*
X0216085Y0140800D01*
X0216085Y0142735D02*
X0215601Y0143219D01*
X0214634Y0143219D01*
X0214150Y0142735D01*
X0067031Y0155317D02*
X0065097Y0155317D01*
X0066064Y0155317D02*
X0066064Y0158219D01*
X0065097Y0157252D01*
X0064085Y0157252D02*
X0064085Y0155317D01*
X0064085Y0156768D02*
X0062150Y0156768D01*
X0062150Y0157252D02*
X0063117Y0158219D01*
X0064085Y0157252D01*
X0062150Y0157252D02*
X0062150Y0155317D01*
X0058031Y0155800D02*
X0058031Y0156284D01*
X0057548Y0156768D01*
X0057064Y0156768D01*
X0057548Y0156768D02*
X0058031Y0157252D01*
X0058031Y0157735D01*
X0057548Y0158219D01*
X0056580Y0158219D01*
X0056097Y0157735D01*
X0055085Y0157252D02*
X0055085Y0155317D01*
X0056097Y0155800D02*
X0056580Y0155317D01*
X0057548Y0155317D01*
X0058031Y0155800D01*
X0055085Y0156768D02*
X0053150Y0156768D01*
X0053150Y0157252D02*
X0054117Y0158219D01*
X0055085Y0157252D01*
X0053150Y0157252D02*
X0053150Y0155317D01*
X0045978Y0155800D02*
X0045978Y0157735D01*
X0045494Y0158219D01*
X0044043Y0158219D01*
X0044043Y0155317D01*
X0045494Y0155317D01*
X0045978Y0155800D01*
X0043031Y0155317D02*
X0043031Y0158219D01*
X0041097Y0158219D02*
X0043031Y0155317D01*
X0041097Y0155317D02*
X0041097Y0158219D01*
X0040085Y0157735D02*
X0039601Y0158219D01*
X0038634Y0158219D01*
X0038150Y0157735D01*
X0038150Y0155800D01*
X0038634Y0155317D01*
X0039601Y0155317D01*
X0040085Y0155800D01*
X0040085Y0156768D01*
X0039117Y0156768D01*
X0038601Y0175317D02*
X0037634Y0175317D01*
X0037150Y0175800D01*
X0037150Y0176768D02*
X0038117Y0177252D01*
X0038601Y0177252D01*
X0039085Y0176768D01*
X0039085Y0175800D01*
X0038601Y0175317D01*
X0040097Y0176284D02*
X0041064Y0175317D01*
X0042031Y0176284D01*
X0042031Y0178219D01*
X0040097Y0178219D02*
X0040097Y0176284D01*
X0037150Y0176768D02*
X0037150Y0178219D01*
X0039085Y0178219D01*
X0052150Y0177252D02*
X0052150Y0175317D01*
X0052150Y0176768D02*
X0054085Y0176768D01*
X0054085Y0177252D02*
X0054085Y0175317D01*
X0055097Y0175317D02*
X0057031Y0177252D01*
X0057031Y0177735D01*
X0056548Y0178219D01*
X0055580Y0178219D01*
X0055097Y0177735D01*
X0054085Y0177252D02*
X0053117Y0178219D01*
X0052150Y0177252D01*
X0055097Y0175317D02*
X0057031Y0175317D01*
X0060150Y0175317D02*
X0060150Y0177252D01*
X0061117Y0178219D01*
X0062085Y0177252D01*
X0062085Y0175317D01*
X0063097Y0175800D02*
X0065031Y0177735D01*
X0065031Y0175800D01*
X0064548Y0175317D01*
X0063580Y0175317D01*
X0063097Y0175800D01*
X0063097Y0177735D01*
X0063580Y0178219D01*
X0064548Y0178219D01*
X0065031Y0177735D01*
X0062085Y0176768D02*
X0060150Y0176768D01*
D12*
X0062311Y0170104D03*
X0054437Y0170104D03*
X0046563Y0170104D03*
X0038689Y0170104D03*
X0030815Y0170104D03*
X0030815Y0162230D03*
X0038689Y0162230D03*
X0046563Y0162230D03*
X0054437Y0162230D03*
X0062311Y0162230D03*
X0070185Y0162230D03*
X0070185Y0170104D03*
D13*
X0156000Y0167167D02*
X0156000Y0173167D01*
X0156002Y0173227D01*
X0156007Y0173288D01*
X0156016Y0173347D01*
X0156029Y0173406D01*
X0156045Y0173465D01*
X0156065Y0173522D01*
X0156088Y0173577D01*
X0156115Y0173632D01*
X0156144Y0173684D01*
X0156177Y0173735D01*
X0156213Y0173784D01*
X0156251Y0173830D01*
X0156293Y0173874D01*
X0156337Y0173916D01*
X0156383Y0173954D01*
X0156432Y0173990D01*
X0156483Y0174023D01*
X0156535Y0174052D01*
X0156590Y0174079D01*
X0156645Y0174102D01*
X0156702Y0174122D01*
X0156761Y0174138D01*
X0156820Y0174151D01*
X0156879Y0174160D01*
X0156940Y0174165D01*
X0157000Y0174167D01*
X0173000Y0174167D01*
X0173060Y0174165D01*
X0173121Y0174160D01*
X0173180Y0174151D01*
X0173239Y0174138D01*
X0173298Y0174122D01*
X0173355Y0174102D01*
X0173410Y0174079D01*
X0173465Y0174052D01*
X0173517Y0174023D01*
X0173568Y0173990D01*
X0173617Y0173954D01*
X0173663Y0173916D01*
X0173707Y0173874D01*
X0173749Y0173830D01*
X0173787Y0173784D01*
X0173823Y0173735D01*
X0173856Y0173684D01*
X0173885Y0173632D01*
X0173912Y0173577D01*
X0173935Y0173522D01*
X0173955Y0173465D01*
X0173971Y0173406D01*
X0173984Y0173347D01*
X0173993Y0173288D01*
X0173998Y0173227D01*
X0174000Y0173167D01*
X0174000Y0167167D01*
X0173998Y0167107D01*
X0173993Y0167046D01*
X0173984Y0166987D01*
X0173971Y0166928D01*
X0173955Y0166869D01*
X0173935Y0166812D01*
X0173912Y0166757D01*
X0173885Y0166702D01*
X0173856Y0166650D01*
X0173823Y0166599D01*
X0173787Y0166550D01*
X0173749Y0166504D01*
X0173707Y0166460D01*
X0173663Y0166418D01*
X0173617Y0166380D01*
X0173568Y0166344D01*
X0173517Y0166311D01*
X0173465Y0166282D01*
X0173410Y0166255D01*
X0173355Y0166232D01*
X0173298Y0166212D01*
X0173239Y0166196D01*
X0173180Y0166183D01*
X0173121Y0166174D01*
X0173060Y0166169D01*
X0173000Y0166167D01*
X0157000Y0166167D01*
X0156940Y0166169D01*
X0156879Y0166174D01*
X0156820Y0166183D01*
X0156761Y0166196D01*
X0156702Y0166212D01*
X0156645Y0166232D01*
X0156590Y0166255D01*
X0156535Y0166282D01*
X0156483Y0166311D01*
X0156432Y0166344D01*
X0156383Y0166380D01*
X0156337Y0166418D01*
X0156293Y0166460D01*
X0156251Y0166504D01*
X0156213Y0166550D01*
X0156177Y0166599D01*
X0156144Y0166650D01*
X0156115Y0166702D01*
X0156088Y0166757D01*
X0156065Y0166812D01*
X0156045Y0166869D01*
X0156029Y0166928D01*
X0156016Y0166987D01*
X0156007Y0167046D01*
X0156002Y0167107D01*
X0156000Y0167167D01*
X0159000Y0170167D02*
X0165000Y0170167D01*
X0165000Y0172667D01*
X0165000Y0170167D02*
X0161000Y0172667D01*
X0161000Y0167667D01*
X0165000Y0170167D01*
X0165000Y0167667D01*
X0165000Y0170167D02*
X0167500Y0170167D01*
X0216000Y0166167D02*
X0216000Y0161167D01*
X0218500Y0158667D01*
X0223500Y0158667D01*
X0226000Y0161167D01*
X0228500Y0158667D01*
X0233500Y0158667D01*
X0236000Y0161167D01*
X0236000Y0166167D01*
X0233500Y0168667D01*
X0228500Y0168667D01*
X0226000Y0166167D01*
X0226000Y0161167D01*
X0226000Y0166167D02*
X0223500Y0168667D01*
X0218500Y0168667D01*
X0216000Y0166167D01*
X0236000Y0166167D02*
X0238500Y0168667D01*
X0243500Y0168667D01*
X0246000Y0166167D01*
X0248500Y0168667D01*
X0253500Y0168667D01*
X0256000Y0166167D01*
X0256000Y0161167D01*
X0253500Y0158667D01*
X0248500Y0158667D01*
X0246000Y0161167D01*
X0243500Y0158667D01*
X0238500Y0158667D01*
X0236000Y0161167D01*
X0246000Y0161167D02*
X0246000Y0166167D01*
X0289500Y0167167D02*
X0289500Y0162167D01*
X0292000Y0159667D01*
X0289500Y0157167D01*
X0289500Y0152167D01*
X0292000Y0149667D01*
X0297000Y0149667D01*
X0299500Y0152167D01*
X0299500Y0157167D01*
X0297000Y0159667D01*
X0292000Y0159667D01*
X0297000Y0159667D02*
X0299500Y0162167D01*
X0299500Y0167167D01*
X0297000Y0169667D01*
X0292000Y0169667D01*
X0289500Y0167167D01*
X0292000Y0149667D02*
X0289500Y0147167D01*
X0289500Y0142167D01*
X0292000Y0139667D01*
X0289500Y0137167D01*
X0289500Y0132167D01*
X0292000Y0129667D01*
X0297000Y0129667D01*
X0299500Y0132167D01*
X0299500Y0137167D01*
X0297000Y0139667D01*
X0292000Y0139667D01*
X0297000Y0139667D02*
X0299500Y0142167D01*
X0299500Y0147167D01*
X0297000Y0149667D01*
X0274500Y0121667D02*
X0269500Y0121667D01*
X0267000Y0119167D01*
X0264500Y0121667D01*
X0259500Y0121667D01*
X0257000Y0119167D01*
X0257000Y0114167D01*
X0259500Y0111667D01*
X0264500Y0111667D01*
X0267000Y0114167D01*
X0267000Y0119167D01*
X0267000Y0114167D02*
X0269500Y0111667D01*
X0274500Y0111667D01*
X0277000Y0114167D01*
X0277000Y0119167D01*
X0274500Y0121667D01*
X0289500Y0104667D02*
X0292000Y0107167D01*
X0297000Y0107167D01*
X0299500Y0104667D01*
X0299500Y0099667D01*
X0297000Y0097167D01*
X0299500Y0094667D01*
X0299500Y0089667D01*
X0297000Y0087167D01*
X0292000Y0087167D01*
X0289500Y0089667D01*
X0289500Y0094667D01*
X0292000Y0097167D01*
X0289500Y0099667D01*
X0289500Y0104667D01*
X0292000Y0097167D02*
X0297000Y0097167D01*
X0297000Y0087167D02*
X0299500Y0084667D01*
X0299500Y0079667D01*
X0297000Y0077167D01*
X0299500Y0074667D01*
X0299500Y0069667D01*
X0297000Y0067167D01*
X0299500Y0064667D01*
X0299500Y0059667D01*
X0297000Y0057167D01*
X0292000Y0057167D01*
X0289500Y0059667D01*
X0289500Y0064667D01*
X0292000Y0067167D01*
X0289500Y0069667D01*
X0289500Y0074667D01*
X0292000Y0077167D01*
X0289500Y0079667D01*
X0289500Y0084667D01*
X0292000Y0087167D01*
X0292000Y0077167D02*
X0297000Y0077167D01*
X0297000Y0067167D02*
X0292000Y0067167D01*
X0292000Y0057167D02*
X0289500Y0054667D01*
X0289500Y0049667D01*
X0292000Y0047167D01*
X0289500Y0044667D01*
X0289500Y0039667D01*
X0292000Y0037167D01*
X0289500Y0034667D01*
X0289500Y0029667D01*
X0292000Y0027167D01*
X0297000Y0027167D01*
X0299500Y0029667D01*
X0299500Y0034667D01*
X0297000Y0037167D01*
X0292000Y0037167D01*
X0297000Y0037167D02*
X0299500Y0039667D01*
X0299500Y0044667D01*
X0297000Y0047167D01*
X0292000Y0047167D01*
X0297000Y0047167D02*
X0299500Y0049667D01*
X0299500Y0054667D01*
X0297000Y0057167D01*
X0266000Y0049667D02*
X0266000Y0044667D01*
X0263500Y0042167D01*
X0258500Y0042167D01*
X0256000Y0044667D01*
X0253500Y0042167D01*
X0248500Y0042167D01*
X0246000Y0044667D01*
X0246000Y0049667D01*
X0248500Y0052167D01*
X0253500Y0052167D01*
X0256000Y0049667D01*
X0258500Y0052167D01*
X0263500Y0052167D01*
X0266000Y0049667D01*
X0256000Y0049667D02*
X0256000Y0044667D01*
X0235000Y0044667D02*
X0232500Y0042167D01*
X0227500Y0042167D01*
X0225000Y0044667D01*
X0222500Y0042167D01*
X0217500Y0042167D01*
X0215000Y0044667D01*
X0215000Y0049667D01*
X0217500Y0052167D01*
X0222500Y0052167D01*
X0225000Y0049667D01*
X0227500Y0052167D01*
X0232500Y0052167D01*
X0235000Y0049667D01*
X0235000Y0044667D01*
X0225000Y0044667D02*
X0225000Y0049667D01*
X0226500Y0037167D02*
X0221500Y0037167D01*
X0219000Y0034667D01*
X0219000Y0029667D01*
X0221500Y0027167D01*
X0226500Y0027167D01*
X0229000Y0029667D01*
X0229000Y0034667D01*
X0226500Y0037167D01*
X0226500Y0027167D02*
X0229000Y0024667D01*
X0229000Y0019667D01*
X0226500Y0017167D01*
X0221500Y0017167D01*
X0219000Y0019667D01*
X0219000Y0024667D01*
X0221500Y0027167D01*
X0192000Y0027667D02*
X0192000Y0012667D01*
X0189500Y0010167D01*
X0184500Y0010167D01*
X0182000Y0012667D01*
X0182000Y0027667D01*
X0179500Y0030167D01*
X0174500Y0030167D01*
X0172000Y0027667D01*
X0172000Y0012667D01*
X0169500Y0010167D01*
X0164500Y0010167D01*
X0162000Y0012667D01*
X0162000Y0027667D01*
X0159500Y0030167D01*
X0154500Y0030167D01*
X0152000Y0027667D01*
X0149500Y0030167D01*
X0144500Y0030167D01*
X0142000Y0027667D01*
X0142000Y0012667D01*
X0144500Y0010167D01*
X0149500Y0010167D01*
X0152000Y0012667D01*
X0152000Y0027667D01*
X0162000Y0027667D02*
X0164500Y0030167D01*
X0169500Y0030167D01*
X0172000Y0027667D01*
X0182000Y0027667D02*
X0184500Y0030167D01*
X0189500Y0030167D01*
X0192000Y0027667D01*
X0182000Y0012667D02*
X0179500Y0010167D01*
X0174500Y0010167D01*
X0172000Y0012667D01*
X0162000Y0012667D02*
X0159500Y0010167D01*
X0154500Y0010167D01*
X0152000Y0012667D01*
X0129500Y0046167D02*
X0124500Y0046167D01*
X0122000Y0048667D01*
X0119500Y0046167D01*
X0114500Y0046167D01*
X0112000Y0048667D01*
X0109500Y0046167D01*
X0104500Y0046167D01*
X0102000Y0048667D01*
X0102000Y0053667D01*
X0104500Y0056167D01*
X0109500Y0056167D01*
X0112000Y0053667D01*
X0114500Y0056167D01*
X0119500Y0056167D01*
X0122000Y0053667D01*
X0124500Y0056167D01*
X0129500Y0056167D01*
X0132000Y0053667D01*
X0132000Y0048667D01*
X0129500Y0046167D01*
X0122000Y0048667D02*
X0122000Y0053667D01*
X0112000Y0053667D02*
X0112000Y0048667D01*
X0171000Y0069667D02*
X0173500Y0067167D01*
X0178500Y0067167D01*
X0181000Y0069667D01*
X0183500Y0067167D01*
X0188500Y0067167D01*
X0191000Y0069667D01*
X0191000Y0074667D01*
X0188500Y0077167D01*
X0183500Y0077167D01*
X0181000Y0074667D01*
X0181000Y0069667D01*
X0181000Y0074667D02*
X0178500Y0077167D01*
X0173500Y0077167D01*
X0171000Y0074667D01*
X0171000Y0069667D01*
X0191000Y0069667D02*
X0193500Y0067167D01*
X0198500Y0067167D01*
X0201000Y0069667D01*
X0203500Y0067167D01*
X0208500Y0067167D01*
X0211000Y0069667D01*
X0213500Y0067167D01*
X0218500Y0067167D01*
X0221000Y0069667D01*
X0221000Y0074667D01*
X0218500Y0077167D01*
X0213500Y0077167D01*
X0211000Y0074667D01*
X0211000Y0069667D01*
X0211000Y0074667D02*
X0208500Y0077167D01*
X0203500Y0077167D01*
X0201000Y0074667D01*
X0201000Y0069667D01*
X0201000Y0074667D02*
X0198500Y0077167D01*
X0193500Y0077167D01*
X0191000Y0074667D01*
X0247000Y0075667D02*
X0247000Y0070667D01*
X0249500Y0068167D01*
X0254500Y0068167D01*
X0257000Y0070667D01*
X0259500Y0068167D01*
X0264500Y0068167D01*
X0267000Y0070667D01*
X0267000Y0075667D01*
X0264500Y0078167D01*
X0259500Y0078167D01*
X0257000Y0075667D01*
X0257000Y0070667D01*
X0257000Y0075667D02*
X0254500Y0078167D01*
X0249500Y0078167D01*
X0247000Y0075667D01*
X0218500Y0127167D02*
X0213500Y0127167D01*
X0211000Y0129667D01*
X0208500Y0127167D01*
X0203500Y0127167D01*
X0201000Y0129667D01*
X0201000Y0134667D01*
X0203500Y0137167D01*
X0208500Y0137167D01*
X0211000Y0134667D01*
X0213500Y0137167D01*
X0218500Y0137167D01*
X0221000Y0134667D01*
X0221000Y0129667D01*
X0218500Y0127167D01*
X0211000Y0129667D02*
X0211000Y0134667D01*
X0201000Y0134667D02*
X0198500Y0137167D01*
X0193500Y0137167D01*
X0191000Y0134667D01*
X0188500Y0137167D01*
X0183500Y0137167D01*
X0181000Y0134667D01*
X0178500Y0137167D01*
X0173500Y0137167D01*
X0171000Y0134667D01*
X0171000Y0129667D01*
X0173500Y0127167D01*
X0178500Y0127167D01*
X0181000Y0129667D01*
X0181000Y0134667D01*
X0181000Y0129667D02*
X0183500Y0127167D01*
X0188500Y0127167D01*
X0191000Y0129667D01*
X0191000Y0134667D01*
X0191000Y0129667D02*
X0193500Y0127167D01*
X0198500Y0127167D01*
X0201000Y0129667D01*
D14*
X0207738Y0123970D02*
X0207738Y0123219D01*
X0208489Y0122469D01*
X0209990Y0122469D01*
X0210741Y0121718D01*
X0210741Y0120967D01*
X0209990Y0120217D01*
X0208489Y0120217D01*
X0207738Y0120967D01*
X0207738Y0123970D02*
X0208489Y0124720D01*
X0209990Y0124720D01*
X0210741Y0123970D01*
X0212342Y0124720D02*
X0214594Y0124720D01*
X0215345Y0123970D01*
X0215345Y0120967D01*
X0214594Y0120217D01*
X0212342Y0120217D01*
X0212342Y0124720D01*
X0216946Y0123970D02*
X0217697Y0124720D01*
X0219198Y0124720D01*
X0219949Y0123970D01*
X0219949Y0123219D01*
X0216946Y0120217D01*
X0219949Y0120217D01*
X0263738Y0109220D02*
X0263738Y0104717D01*
X0266741Y0104717D01*
X0268342Y0104717D02*
X0271345Y0104717D01*
X0272946Y0104717D02*
X0275198Y0104717D01*
X0275949Y0105467D01*
X0275949Y0108470D01*
X0275198Y0109220D01*
X0272946Y0109220D01*
X0272946Y0104717D01*
X0269843Y0106969D02*
X0268342Y0106969D01*
X0268342Y0109220D02*
X0268342Y0104717D01*
X0268342Y0109220D02*
X0271345Y0109220D01*
X0301946Y0106115D02*
X0301946Y0103113D01*
X0304198Y0103113D01*
X0303447Y0104614D01*
X0303447Y0105365D01*
X0304198Y0106115D01*
X0305699Y0106115D01*
X0306450Y0105365D01*
X0306450Y0103863D01*
X0305699Y0103113D01*
X0305699Y0101561D02*
X0306450Y0101561D01*
X0306450Y0100811D01*
X0305699Y0100811D01*
X0305699Y0101561D01*
X0306450Y0099209D02*
X0306450Y0096207D01*
X0303447Y0099209D01*
X0302697Y0099209D01*
X0301946Y0098459D01*
X0301946Y0096957D01*
X0302697Y0096207D01*
X0301946Y0094605D02*
X0306450Y0094605D01*
X0303447Y0093104D02*
X0301946Y0094605D01*
X0303447Y0093104D02*
X0301946Y0091603D01*
X0306450Y0091603D01*
X0304198Y0090002D02*
X0304949Y0089251D01*
X0304949Y0086999D01*
X0306450Y0086999D02*
X0301946Y0086999D01*
X0301946Y0089251D01*
X0302697Y0090002D01*
X0304198Y0090002D01*
X0268368Y0084370D02*
X0268368Y0082869D01*
X0267618Y0082118D01*
X0265366Y0082118D01*
X0266867Y0082118D02*
X0268368Y0080617D01*
X0265366Y0080617D02*
X0265366Y0085120D01*
X0267618Y0085120D01*
X0268368Y0084370D01*
X0263764Y0079866D02*
X0260762Y0079866D01*
X0259160Y0081367D02*
X0259160Y0084370D01*
X0258410Y0085120D01*
X0256158Y0085120D01*
X0256158Y0080617D01*
X0258410Y0080617D01*
X0259160Y0081367D01*
X0254556Y0080617D02*
X0251554Y0080617D01*
X0251554Y0085120D01*
X0254556Y0085120D01*
X0253055Y0082869D02*
X0251554Y0082869D01*
X0246950Y0085120D02*
X0246950Y0080617D01*
X0249953Y0080617D01*
X0251305Y0059120D02*
X0252806Y0059120D01*
X0253556Y0058370D01*
X0250554Y0055367D01*
X0251305Y0054617D01*
X0252806Y0054617D01*
X0253556Y0055367D01*
X0253556Y0058370D01*
X0255158Y0058370D02*
X0255908Y0059120D01*
X0257410Y0059120D01*
X0258160Y0058370D01*
X0255158Y0055367D01*
X0255908Y0054617D01*
X0257410Y0054617D01*
X0258160Y0055367D01*
X0258160Y0058370D01*
X0259762Y0059120D02*
X0259762Y0054617D01*
X0259762Y0056118D02*
X0262764Y0059120D01*
X0260512Y0056869D02*
X0262764Y0054617D01*
X0255158Y0055367D02*
X0255158Y0058370D01*
X0251305Y0059120D02*
X0250554Y0058370D01*
X0250554Y0055367D01*
X0248953Y0054617D02*
X0245950Y0054617D01*
X0247451Y0054617D02*
X0247451Y0059120D01*
X0245950Y0057619D01*
X0231764Y0054617D02*
X0228762Y0054617D01*
X0230263Y0054617D02*
X0230263Y0059120D01*
X0228762Y0057619D01*
X0227160Y0059120D02*
X0224158Y0056118D01*
X0224908Y0056869D02*
X0227160Y0054617D01*
X0224158Y0054617D02*
X0224158Y0059120D01*
X0222556Y0058370D02*
X0221806Y0059120D01*
X0220305Y0059120D01*
X0219554Y0058370D01*
X0219554Y0055367D01*
X0222556Y0058370D01*
X0222556Y0055367D01*
X0221806Y0054617D01*
X0220305Y0054617D01*
X0219554Y0055367D01*
X0217953Y0054617D02*
X0214950Y0054617D01*
X0216451Y0054617D02*
X0216451Y0059120D01*
X0214950Y0057619D01*
X0183160Y0079617D02*
X0180158Y0079617D01*
X0181659Y0079617D02*
X0181659Y0084120D01*
X0180158Y0082619D01*
X0178556Y0083370D02*
X0177806Y0084120D01*
X0175554Y0084120D01*
X0175554Y0079617D01*
X0177806Y0079617D01*
X0178556Y0080367D01*
X0178556Y0083370D01*
X0173953Y0083370D02*
X0173202Y0084120D01*
X0171701Y0084120D01*
X0170950Y0083370D01*
X0170950Y0082619D01*
X0171701Y0081869D01*
X0173202Y0081869D01*
X0173953Y0081118D01*
X0173953Y0080367D01*
X0173202Y0079617D01*
X0171701Y0079617D01*
X0170950Y0080367D01*
X0130949Y0042970D02*
X0130949Y0041469D01*
X0130198Y0040718D01*
X0127946Y0040718D01*
X0129447Y0040718D02*
X0130949Y0039217D01*
X0127946Y0039217D02*
X0127946Y0043720D01*
X0130198Y0043720D01*
X0130949Y0042970D01*
X0126345Y0042970D02*
X0125594Y0043720D01*
X0124093Y0043720D01*
X0123342Y0042970D01*
X0123342Y0039967D01*
X0124093Y0039217D01*
X0125594Y0039217D01*
X0126345Y0039967D01*
X0126345Y0042970D01*
X0121741Y0043720D02*
X0118738Y0043720D01*
X0120239Y0043720D02*
X0120239Y0039217D01*
X0117137Y0039217D02*
X0117137Y0042219D01*
X0115635Y0043720D01*
X0114134Y0042219D01*
X0114134Y0039217D01*
X0112533Y0039217D02*
X0109530Y0039217D01*
X0109530Y0043720D01*
X0107929Y0043720D02*
X0107929Y0039967D01*
X0107178Y0039217D01*
X0105677Y0039217D01*
X0104926Y0039967D01*
X0104926Y0043720D01*
X0103325Y0042970D02*
X0102574Y0043720D01*
X0101073Y0043720D01*
X0100322Y0042970D01*
X0100322Y0039967D01*
X0101073Y0039217D01*
X0102574Y0039217D01*
X0103325Y0039967D01*
X0103325Y0041469D01*
X0101824Y0041469D01*
X0098721Y0043720D02*
X0095719Y0043720D01*
X0095719Y0039217D01*
X0098721Y0039217D01*
X0097220Y0041469D02*
X0095719Y0041469D01*
X0094117Y0041469D02*
X0093367Y0040718D01*
X0091115Y0040718D01*
X0092616Y0040718D02*
X0094117Y0039217D01*
X0094117Y0041469D02*
X0094117Y0042970D01*
X0093367Y0043720D01*
X0091115Y0043720D01*
X0091115Y0039217D01*
X0114134Y0041469D02*
X0117137Y0041469D01*
X0178438Y0006670D02*
X0178438Y0003667D01*
X0179189Y0002917D01*
X0180690Y0002917D01*
X0181441Y0003667D01*
X0183042Y0003667D02*
X0183793Y0002917D01*
X0185294Y0002917D01*
X0186045Y0003667D01*
X0186045Y0006670D01*
X0185294Y0007420D01*
X0183793Y0007420D01*
X0183042Y0006670D01*
X0183042Y0003667D01*
X0181441Y0006670D02*
X0180690Y0007420D01*
X0179189Y0007420D01*
X0178438Y0006670D01*
X0187646Y0006670D02*
X0188397Y0007420D01*
X0189898Y0007420D01*
X0190649Y0006670D01*
X0190649Y0005919D01*
X0187646Y0002917D01*
X0190649Y0002917D01*
X0212046Y0018618D02*
X0213547Y0017117D01*
X0212046Y0018618D02*
X0216550Y0018618D01*
X0216550Y0017117D02*
X0216550Y0020119D01*
X0215799Y0021721D02*
X0212797Y0021721D01*
X0212046Y0022471D01*
X0212046Y0023973D01*
X0212797Y0024723D01*
X0215799Y0021721D01*
X0216550Y0022471D01*
X0216550Y0023973D01*
X0215799Y0024723D01*
X0212797Y0024723D01*
X0212046Y0026325D02*
X0216550Y0026325D01*
X0215049Y0026325D02*
X0212046Y0029327D01*
X0212797Y0030928D02*
X0212046Y0031679D01*
X0212046Y0033180D01*
X0212797Y0033931D01*
X0213547Y0033931D01*
X0216550Y0030928D01*
X0216550Y0033931D01*
X0216550Y0029327D02*
X0214298Y0027075D01*
X0301946Y0125712D02*
X0301946Y0128715D01*
X0301946Y0127213D02*
X0306450Y0127213D01*
X0306450Y0130316D02*
X0306450Y0133318D01*
X0306450Y0134920D02*
X0301946Y0134920D01*
X0303447Y0136421D01*
X0301946Y0137922D01*
X0306450Y0137922D01*
X0306450Y0139524D02*
X0301946Y0139524D01*
X0301946Y0141776D01*
X0302697Y0142526D01*
X0304198Y0142526D01*
X0304949Y0141776D01*
X0304949Y0139524D01*
X0306450Y0144128D02*
X0301946Y0147130D01*
X0301946Y0148732D02*
X0306450Y0148732D01*
X0304198Y0148732D02*
X0304198Y0151734D01*
X0305699Y0153336D02*
X0301946Y0153336D01*
X0301946Y0151734D02*
X0306450Y0151734D01*
X0305699Y0153336D02*
X0306450Y0154086D01*
X0306450Y0155587D01*
X0305699Y0156338D01*
X0301946Y0156338D01*
X0301946Y0157939D02*
X0303447Y0159441D01*
X0301946Y0160942D01*
X0306450Y0160942D01*
X0306450Y0162543D02*
X0306450Y0164045D01*
X0306450Y0163294D02*
X0301946Y0163294D01*
X0301946Y0162543D02*
X0301946Y0164045D01*
X0301946Y0165613D02*
X0301946Y0167865D01*
X0302697Y0168615D01*
X0305699Y0168615D01*
X0306450Y0167865D01*
X0306450Y0165613D01*
X0301946Y0165613D01*
X0301946Y0157939D02*
X0306450Y0157939D01*
X0301946Y0133318D02*
X0301946Y0130316D01*
X0306450Y0130316D01*
X0304198Y0130316D02*
X0304198Y0131817D01*
X0237368Y0171117D02*
X0235116Y0173369D01*
X0234366Y0172618D02*
X0237368Y0175620D01*
X0234366Y0175620D02*
X0234366Y0171117D01*
X0232764Y0171867D02*
X0232014Y0171117D01*
X0230512Y0171117D01*
X0229762Y0171867D01*
X0229762Y0174870D01*
X0230512Y0175620D01*
X0232014Y0175620D01*
X0232764Y0174870D01*
X0228160Y0174870D02*
X0227410Y0175620D01*
X0225908Y0175620D01*
X0225158Y0174870D01*
X0225158Y0171867D01*
X0225908Y0171117D01*
X0227410Y0171117D01*
X0228160Y0171867D01*
X0228160Y0174870D01*
X0223556Y0171117D02*
X0220554Y0171117D01*
X0220554Y0175620D01*
X0218953Y0174870D02*
X0218202Y0175620D01*
X0216701Y0175620D01*
X0215950Y0174870D01*
X0215950Y0171867D01*
X0216701Y0171117D01*
X0218202Y0171117D01*
X0218953Y0171867D01*
X0172149Y0176667D02*
X0172149Y0177418D01*
X0171398Y0178169D01*
X0169146Y0178169D01*
X0169146Y0176667D01*
X0169897Y0175917D01*
X0171398Y0175917D01*
X0172149Y0176667D01*
X0170647Y0179670D02*
X0169146Y0178169D01*
X0167545Y0178169D02*
X0164542Y0178169D01*
X0166794Y0180420D01*
X0166794Y0175917D01*
X0162941Y0178169D02*
X0159938Y0178169D01*
X0162190Y0180420D01*
X0162190Y0175917D01*
X0157586Y0175917D02*
X0157586Y0180420D01*
X0155334Y0178169D01*
X0158337Y0178169D01*
X0153733Y0180420D02*
X0153733Y0175917D01*
X0150730Y0180420D01*
X0150730Y0175917D01*
X0149129Y0175917D02*
X0146126Y0175917D01*
X0147628Y0175917D02*
X0147628Y0180420D01*
X0146126Y0178919D01*
X0164542Y0164920D02*
X0166794Y0164920D01*
X0167545Y0164170D01*
X0167545Y0161167D01*
X0166794Y0160417D01*
X0164542Y0160417D01*
X0164542Y0164920D01*
X0169146Y0163419D02*
X0170647Y0164920D01*
X0170647Y0160417D01*
X0169146Y0160417D02*
X0172149Y0160417D01*
X0170647Y0179670D02*
X0172149Y0180420D01*
D15*
X0021811Y0056883D02*
X0021811Y0021450D01*
X0042677Y0021450D01*
X0061181Y0021450D02*
X0063937Y0021450D01*
X0063937Y0029718D01*
X0063937Y0048615D02*
X0063937Y0056883D01*
X0021811Y0056883D01*
X0011000Y0067167D02*
X0011000Y0097167D01*
X0016000Y0097167D01*
X0016000Y0107167D01*
X0011000Y0107167D01*
X0011000Y0137167D01*
X0151000Y0137167D01*
X0151000Y0067167D01*
X0011000Y0067167D01*
D16*
X0025049Y0053744D02*
X0026550Y0053744D01*
X0025799Y0053744D02*
X0025799Y0052743D01*
X0025049Y0052743D02*
X0026550Y0052743D01*
X0026550Y0051770D02*
X0025049Y0051770D01*
X0025049Y0051270D02*
X0025049Y0052271D01*
X0025299Y0050798D02*
X0025799Y0050798D01*
X0026050Y0050547D01*
X0026050Y0049797D01*
X0026550Y0049797D02*
X0025049Y0049797D01*
X0025049Y0050547D01*
X0025299Y0050798D01*
X0025049Y0049324D02*
X0026050Y0048324D01*
X0025799Y0048574D02*
X0026550Y0049324D01*
X0026550Y0048324D02*
X0025049Y0048324D01*
X0025299Y0047851D02*
X0025049Y0047601D01*
X0025049Y0047101D01*
X0025299Y0046850D01*
X0026300Y0046850D01*
X0026550Y0047101D01*
X0026550Y0047601D01*
X0026300Y0047851D01*
X0026550Y0046378D02*
X0025549Y0046378D01*
X0025049Y0045877D01*
X0025549Y0045377D01*
X0026550Y0045377D01*
X0025799Y0045377D02*
X0025799Y0046378D01*
X0025049Y0044905D02*
X0025049Y0044404D01*
X0025049Y0044654D02*
X0026300Y0044654D01*
X0026550Y0044404D01*
X0026550Y0044154D01*
X0026300Y0043904D01*
X0026800Y0043431D02*
X0026800Y0042431D01*
X0026550Y0041958D02*
X0026050Y0041458D01*
X0026050Y0041708D02*
X0026050Y0040957D01*
X0026550Y0040957D02*
X0025049Y0040957D01*
X0025049Y0041708D01*
X0025299Y0041958D01*
X0025799Y0041958D01*
X0026050Y0041708D01*
X0026550Y0040485D02*
X0026550Y0039484D01*
X0025049Y0039484D01*
X0025049Y0040485D01*
X0025799Y0039984D02*
X0025799Y0039484D01*
X0025049Y0039012D02*
X0026550Y0039012D01*
X0026050Y0038511D01*
X0026550Y0038011D01*
X0025049Y0038011D01*
X0025299Y0037538D02*
X0025049Y0037288D01*
X0025049Y0036788D01*
X0025299Y0036538D01*
X0026300Y0036538D01*
X0026550Y0036788D01*
X0026550Y0037288D01*
X0026300Y0037538D01*
X0025299Y0037538D01*
X0025299Y0036065D02*
X0025799Y0036065D01*
X0026050Y0035815D01*
X0026050Y0035064D01*
X0026550Y0035064D02*
X0025049Y0035064D01*
X0025049Y0035815D01*
X0025299Y0036065D01*
X0031300Y0051270D02*
X0031550Y0051520D01*
X0031550Y0051771D01*
X0031300Y0052021D01*
X0030049Y0052021D01*
X0030049Y0051771D02*
X0030049Y0052271D01*
X0030549Y0052743D02*
X0030049Y0053244D01*
X0031550Y0053244D01*
X0031550Y0053744D02*
X0031550Y0052743D01*
D17*
X0171500Y0170167D03*
D18*
X0177750Y0170167D03*
X0152250Y0170167D03*
M02*
