G75*
%MOIN*%
%OFA0B0*%
%FSLAX25Y25*%
%IPPOS*%
%LPD*%
%AMOC8*
5,1,8,0,0,1.08239X$1,22.5*
%
%ADD10C,0.06400*%
%ADD11C,0.07200*%
%ADD12OC8,0.07200*%
%ADD13C,0.07000*%
%ADD14C,0.17800*%
%ADD15C,0.06400*%
D10*
X0030815Y0162230D03*
X0038689Y0162230D03*
X0046563Y0162230D03*
X0054437Y0162230D03*
X0062311Y0162230D03*
X0070185Y0162230D03*
X0070185Y0170104D03*
X0062311Y0170104D03*
X0054437Y0170104D03*
X0046563Y0170104D03*
X0038689Y0170104D03*
X0030815Y0170104D03*
D11*
X0176000Y0135367D02*
X0176000Y0128967D01*
X0186000Y0128967D02*
X0186000Y0135367D01*
X0196000Y0135367D02*
X0196000Y0128967D01*
X0206000Y0128967D02*
X0206000Y0135367D01*
X0216000Y0135367D02*
X0216000Y0128967D01*
X0262000Y0119867D02*
X0262000Y0113467D01*
X0272000Y0113467D02*
X0272000Y0119867D01*
X0291300Y0134667D02*
X0297700Y0134667D01*
X0297700Y0144667D02*
X0291300Y0144667D01*
X0291300Y0154667D02*
X0297700Y0154667D01*
X0297700Y0164667D02*
X0291300Y0164667D01*
X0251000Y0166867D02*
X0251000Y0160467D01*
X0241000Y0160467D02*
X0241000Y0166867D01*
X0231000Y0166867D02*
X0231000Y0160467D01*
X0221000Y0160467D02*
X0221000Y0166867D01*
X0291300Y0102167D02*
X0297700Y0102167D01*
X0297700Y0092167D02*
X0291300Y0092167D01*
X0291300Y0082167D02*
X0297700Y0082167D01*
X0297700Y0072167D02*
X0291300Y0072167D01*
X0291300Y0062167D02*
X0297700Y0062167D01*
X0297700Y0052167D02*
X0291300Y0052167D01*
X0291300Y0042167D02*
X0297700Y0042167D01*
X0297700Y0032167D02*
X0291300Y0032167D01*
X0261000Y0043967D02*
X0261000Y0050367D01*
X0251000Y0050367D02*
X0251000Y0043967D01*
X0230000Y0043967D02*
X0230000Y0050367D01*
X0220000Y0050367D02*
X0220000Y0043967D01*
X0220800Y0032167D02*
X0227200Y0032167D01*
X0227200Y0022167D02*
X0220800Y0022167D01*
X0216000Y0068967D02*
X0216000Y0075367D01*
X0206000Y0075367D02*
X0206000Y0068967D01*
X0196000Y0068967D02*
X0196000Y0075367D01*
X0186000Y0075367D02*
X0186000Y0068967D01*
X0176000Y0068967D02*
X0176000Y0075367D01*
X0127000Y0054367D02*
X0127000Y0047967D01*
X0117000Y0047967D02*
X0117000Y0054367D01*
X0107000Y0054367D02*
X0107000Y0047967D01*
X0252000Y0069967D02*
X0252000Y0076367D01*
X0262000Y0076367D02*
X0262000Y0069967D01*
D12*
X0187000Y0025167D03*
X0177000Y0025167D03*
X0167000Y0025167D03*
X0157000Y0025167D03*
X0147000Y0025167D03*
X0147000Y0015167D03*
X0157000Y0015167D03*
X0167000Y0015167D03*
X0177000Y0015167D03*
X0187000Y0015167D03*
D13*
X0146000Y0072167D03*
X0136000Y0072167D03*
X0126000Y0072167D03*
X0116000Y0072167D03*
X0106000Y0072167D03*
X0096000Y0072167D03*
X0086000Y0072167D03*
X0076000Y0072167D03*
X0066000Y0072167D03*
X0056000Y0072167D03*
X0046000Y0072167D03*
X0036000Y0072167D03*
X0026000Y0072167D03*
X0016000Y0072167D03*
X0016000Y0132167D03*
X0026000Y0132167D03*
X0036000Y0132167D03*
X0046000Y0132167D03*
X0056000Y0132167D03*
X0066000Y0132167D03*
X0076000Y0132167D03*
X0086000Y0132167D03*
X0096000Y0132167D03*
X0106000Y0132167D03*
X0116000Y0132167D03*
X0126000Y0132167D03*
X0136000Y0132167D03*
X0146000Y0132167D03*
X0146000Y0122167D03*
X0146000Y0112167D03*
X0146000Y0102167D03*
X0146000Y0092167D03*
X0146000Y0082167D03*
D14*
X0052126Y0020663D03*
X0063937Y0039167D03*
X0040315Y0039167D03*
D15*
X0142200Y0170167D02*
X0147800Y0170167D01*
X0182200Y0170167D02*
X0187800Y0170167D01*
M02*
