%
M48
M72
T01C0.0240
T02C0.0315
T03C0.0320
T04C0.0380
T05C0.0400
T06C0.1180
%
T01
X14040Y7867
X20080Y5707
X3430Y15247
T02
X3081Y16223
X3869Y16223
X4656Y16223
X5444Y16223
X6231Y16223
X7019Y16223
X7019Y17010
X6231Y17010
X5444Y17010
X4656Y17010
X3869Y17010
X3081Y17010
T03
X14500Y17017
X18500Y17017
T04
X14600Y13217
X13600Y13217
X12600Y13217
X11600Y13217
X10600Y13217
X9600Y13217
X8600Y13217
X7600Y13217
X6600Y13217
X5600Y13217
X4600Y13217
X3600Y13217
X2600Y13217
X1600Y13217
X1600Y7217
X2600Y7217
X3600Y7217
X4600Y7217
X5600Y7217
X6600Y7217
X7600Y7217
X8600Y7217
X9600Y7217
X10600Y7217
X11600Y7217
X12600Y7217
X13600Y7217
X14600Y7217
X14600Y8217
X14600Y9217
X14600Y10217
X14600Y11217
X14600Y12217
T05
X17600Y13217
X18600Y13217
X19600Y13217
X20600Y13217
X21600Y13217
X26200Y11667
X27200Y11667
X29450Y10217
X29450Y9217
X29450Y8217
X29450Y7217
X29450Y6217
X29450Y5217
X29450Y4217
X29450Y3217
X26100Y4717
X25100Y4717
X23000Y4717
X22000Y4717
X22400Y3217
X22400Y2217
X18700Y2517
X17700Y2517
X16700Y2517
X15700Y2517
X14700Y2517
X14700Y1517
X15700Y1517
X16700Y1517
X17700Y1517
X18700Y1517
X12700Y5117
X11700Y5117
X10700Y5117
X17600Y7217
X18600Y7217
X19600Y7217
X20600Y7217
X21600Y7217
X25200Y7317
X26200Y7317
X29450Y13467
X29450Y14467
X29450Y15467
X29450Y16467
X25100Y16367
X24100Y16367
X23100Y16367
X22100Y16367
T06
X5213Y2066
X6394Y3917
X4031Y3917
M30
