G75*
%MOIN*%
%OFA0B0*%
%FSLAX25Y25*%
%IPPOS*%
%LPD*%
%AMOC8*
5,1,8,0,0,1.08239X$1,22.5*
%
%ADD10C,0.05600*%
%ADD11C,0.06400*%
%ADD12OC8,0.06400*%
%ADD13C,0.06200*%
%ADD14C,0.17000*%
%ADD15C,0.05600*%
%ADD16C,0.01000*%
%ADD17C,0.04400*%
D10*
X0030815Y0162230D03*
X0038689Y0162230D03*
X0046563Y0162230D03*
X0054437Y0162230D03*
X0062311Y0162230D03*
X0070185Y0162230D03*
X0070185Y0170104D03*
X0062311Y0170104D03*
X0054437Y0170104D03*
X0046563Y0170104D03*
X0038689Y0170104D03*
X0030815Y0170104D03*
D11*
X0176000Y0135367D02*
X0176000Y0128967D01*
X0186000Y0128967D02*
X0186000Y0135367D01*
X0196000Y0135367D02*
X0196000Y0128967D01*
X0206000Y0128967D02*
X0206000Y0135367D01*
X0216000Y0135367D02*
X0216000Y0128967D01*
X0262000Y0119867D02*
X0262000Y0113467D01*
X0272000Y0113467D02*
X0272000Y0119867D01*
X0291300Y0134667D02*
X0297700Y0134667D01*
X0297700Y0144667D02*
X0291300Y0144667D01*
X0291300Y0154667D02*
X0297700Y0154667D01*
X0297700Y0164667D02*
X0291300Y0164667D01*
X0251000Y0166867D02*
X0251000Y0160467D01*
X0241000Y0160467D02*
X0241000Y0166867D01*
X0231000Y0166867D02*
X0231000Y0160467D01*
X0221000Y0160467D02*
X0221000Y0166867D01*
X0291300Y0102167D02*
X0297700Y0102167D01*
X0297700Y0092167D02*
X0291300Y0092167D01*
X0291300Y0082167D02*
X0297700Y0082167D01*
X0297700Y0072167D02*
X0291300Y0072167D01*
X0291300Y0062167D02*
X0297700Y0062167D01*
X0297700Y0052167D02*
X0291300Y0052167D01*
X0291300Y0042167D02*
X0297700Y0042167D01*
X0297700Y0032167D02*
X0291300Y0032167D01*
X0261000Y0043967D02*
X0261000Y0050367D01*
X0251000Y0050367D02*
X0251000Y0043967D01*
X0230000Y0043967D02*
X0230000Y0050367D01*
X0220000Y0050367D02*
X0220000Y0043967D01*
X0220800Y0032167D02*
X0227200Y0032167D01*
X0227200Y0022167D02*
X0220800Y0022167D01*
X0216000Y0068967D02*
X0216000Y0075367D01*
X0206000Y0075367D02*
X0206000Y0068967D01*
X0196000Y0068967D02*
X0196000Y0075367D01*
X0186000Y0075367D02*
X0186000Y0068967D01*
X0176000Y0068967D02*
X0176000Y0075367D01*
X0127000Y0054367D02*
X0127000Y0047967D01*
X0117000Y0047967D02*
X0117000Y0054367D01*
X0107000Y0054367D02*
X0107000Y0047967D01*
X0252000Y0069967D02*
X0252000Y0076367D01*
X0262000Y0076367D02*
X0262000Y0069967D01*
D12*
X0187000Y0025167D03*
X0177000Y0025167D03*
X0167000Y0025167D03*
X0157000Y0025167D03*
X0147000Y0025167D03*
X0147000Y0015167D03*
X0157000Y0015167D03*
X0167000Y0015167D03*
X0177000Y0015167D03*
X0187000Y0015167D03*
D13*
X0146000Y0072167D03*
X0136000Y0072167D03*
X0126000Y0072167D03*
X0116000Y0072167D03*
X0106000Y0072167D03*
X0096000Y0072167D03*
X0086000Y0072167D03*
X0076000Y0072167D03*
X0066000Y0072167D03*
X0056000Y0072167D03*
X0046000Y0072167D03*
X0036000Y0072167D03*
X0026000Y0072167D03*
X0016000Y0072167D03*
X0016000Y0132167D03*
X0026000Y0132167D03*
X0036000Y0132167D03*
X0046000Y0132167D03*
X0056000Y0132167D03*
X0066000Y0132167D03*
X0076000Y0132167D03*
X0086000Y0132167D03*
X0096000Y0132167D03*
X0106000Y0132167D03*
X0116000Y0132167D03*
X0126000Y0132167D03*
X0136000Y0132167D03*
X0146000Y0132167D03*
X0146000Y0122167D03*
X0146000Y0112167D03*
X0146000Y0102167D03*
X0146000Y0092167D03*
X0146000Y0082167D03*
D14*
X0063937Y0039167D03*
X0040315Y0039167D03*
X0052126Y0020663D03*
D15*
X0142200Y0170167D02*
X0147800Y0170167D01*
X0182200Y0170167D02*
X0187800Y0170167D01*
D16*
X0040600Y0031867D02*
X0051400Y0021067D01*
X0052126Y0020663D01*
X0052300Y0021067D01*
X0086500Y0021067D01*
X0116200Y0050767D01*
X0117000Y0051167D01*
X0107000Y0051167D02*
X0106300Y0050767D01*
X0074800Y0050767D01*
X0064000Y0039967D01*
X0063937Y0039167D01*
X0040600Y0039067D02*
X0040600Y0031867D01*
X0040600Y0039067D02*
X0040315Y0039167D01*
X0039700Y0039967D01*
X0016300Y0063367D01*
X0016300Y0071467D01*
X0016000Y0072167D01*
X0020800Y0070567D02*
X0020800Y0127267D01*
X0016300Y0131767D01*
X0016000Y0132167D01*
X0016300Y0132667D01*
X0016300Y0161467D01*
X0029800Y0174967D01*
X0033400Y0174967D01*
X0037900Y0170467D01*
X0038689Y0170104D01*
X0038800Y0170467D01*
X0045100Y0176767D01*
X0073900Y0176767D01*
X0080200Y0170467D01*
X0145000Y0170467D01*
X0145000Y0170167D01*
X0171100Y0163267D02*
X0220600Y0163267D01*
X0221000Y0163667D01*
X0217900Y0170467D02*
X0218800Y0171367D01*
X0233200Y0171367D01*
X0240400Y0164167D01*
X0241000Y0163667D01*
X0250300Y0163267D02*
X0251000Y0163667D01*
X0251200Y0164167D01*
X0294400Y0164167D01*
X0294500Y0164667D01*
X0294500Y0144667D02*
X0294400Y0144367D01*
X0238600Y0144367D01*
X0155300Y0063067D01*
X0137300Y0063067D01*
X0126400Y0066967D01*
X0122200Y0066967D01*
X0121600Y0070567D01*
X0120600Y0075267D01*
X0118000Y0076867D01*
X0092600Y0076867D01*
X0090100Y0072367D01*
X0086500Y0072367D01*
X0086000Y0072167D01*
X0106000Y0072167D02*
X0106300Y0071467D01*
X0109900Y0071467D01*
X0116200Y0065167D01*
X0125500Y0065167D01*
X0143200Y0053467D01*
X0210300Y0053467D01*
X0225000Y0065167D01*
X0254800Y0065167D01*
X0262000Y0072367D01*
X0262000Y0073167D01*
X0252100Y0073267D02*
X0252000Y0073167D01*
X0252100Y0073267D02*
X0252100Y0096667D01*
X0271900Y0116467D01*
X0272000Y0116667D01*
X0273700Y0124567D02*
X0280400Y0121867D01*
X0280400Y0110167D01*
X0289400Y0092167D01*
X0294500Y0092167D01*
X0295300Y0092167D01*
X0302500Y0084967D01*
X0302500Y0060667D01*
X0302900Y0057067D01*
X0240400Y0057067D01*
X0230500Y0047167D01*
X0230000Y0047167D01*
X0230500Y0047167D02*
X0230500Y0035467D01*
X0232400Y0034567D01*
X0232400Y0029067D01*
X0224200Y0022867D01*
X0224000Y0022167D01*
X0223300Y0021967D01*
X0217000Y0015667D01*
X0187300Y0015667D01*
X0187000Y0015167D01*
X0175600Y0020167D02*
X0211600Y0020167D01*
X0223300Y0031867D01*
X0224000Y0032167D01*
X0220000Y0047167D02*
X0190700Y0047167D01*
X0172000Y0028467D01*
X0172000Y0023767D01*
X0168400Y0020167D01*
X0162700Y0020167D01*
X0162200Y0015667D01*
X0157600Y0015667D01*
X0157000Y0015167D01*
X0151300Y0014767D02*
X0152800Y0010267D01*
X0225500Y0010267D01*
X0250300Y0039067D01*
X0250300Y0047167D01*
X0251000Y0047167D01*
X0225100Y0061567D02*
X0294400Y0061567D01*
X0294500Y0062167D01*
X0225100Y0061567D02*
X0212200Y0051667D01*
X0142300Y0051667D01*
X0123600Y0063367D01*
X0034800Y0063367D01*
X0030700Y0071467D01*
X0026200Y0071467D01*
X0026000Y0072167D01*
X0020800Y0070567D02*
X0029800Y0061567D01*
X0117100Y0061567D01*
X0127000Y0051667D01*
X0127000Y0051167D01*
X0136200Y0065867D02*
X0151700Y0065867D01*
X0205300Y0125467D01*
X0205300Y0131767D01*
X0206000Y0132167D01*
X0200700Y0128167D02*
X0200700Y0137167D01*
X0204400Y0139867D01*
X0208000Y0139867D01*
X0215200Y0132667D01*
X0216000Y0132167D01*
X0216100Y0132667D01*
X0219700Y0132667D01*
X0250300Y0163267D01*
X0217900Y0170467D02*
X0185500Y0170467D01*
X0185000Y0170167D01*
X0171100Y0163267D02*
X0141400Y0138567D01*
X0141400Y0130867D01*
X0137800Y0127267D01*
X0104500Y0127267D01*
X0100000Y0131767D01*
X0096400Y0131767D01*
X0096000Y0132167D01*
X0100900Y0137167D02*
X0105400Y0132667D01*
X0106000Y0132167D01*
X0100900Y0137167D02*
X0081100Y0137167D01*
X0056800Y0161467D01*
X0055000Y0161467D01*
X0054437Y0162230D01*
X0046900Y0161467D02*
X0046563Y0162230D01*
X0046900Y0161467D02*
X0075700Y0132667D01*
X0076000Y0132167D01*
X0066000Y0132167D02*
X0065800Y0132667D01*
X0046000Y0152467D01*
X0034300Y0152467D01*
X0030700Y0150667D02*
X0044200Y0137167D01*
X0051400Y0137167D01*
X0055900Y0132667D01*
X0056000Y0132167D01*
X0046000Y0132167D02*
X0046000Y0132667D01*
X0026200Y0152467D01*
X0026200Y0165067D01*
X0030700Y0169567D01*
X0030815Y0170104D01*
X0030815Y0162230D02*
X0030700Y0161467D01*
X0030700Y0150667D01*
X0054437Y0170104D02*
X0055000Y0170467D01*
X0056800Y0170467D01*
X0061300Y0174967D01*
X0073000Y0174967D01*
X0115300Y0132667D01*
X0116000Y0132167D01*
X0146000Y0132167D02*
X0146800Y0132667D01*
X0163900Y0132667D01*
X0172900Y0141667D01*
X0189100Y0141667D01*
X0195400Y0135367D01*
X0195400Y0132667D01*
X0196000Y0132167D01*
X0200700Y0128167D02*
X0200100Y0123567D01*
X0191500Y0123567D01*
X0190900Y0128167D01*
X0190900Y0137167D01*
X0188200Y0139867D01*
X0173800Y0139867D01*
X0171100Y0137167D01*
X0171100Y0130867D01*
X0146800Y0106567D01*
X0146800Y0102967D01*
X0146000Y0102167D01*
X0146000Y0092167D02*
X0075700Y0092167D01*
X0036100Y0131767D01*
X0036000Y0132167D01*
X0046000Y0078667D02*
X0140400Y0078667D01*
X0146000Y0072167D02*
X0146800Y0072367D01*
X0152800Y0078867D01*
X0175600Y0105667D01*
X0175600Y0131767D01*
X0176000Y0132167D01*
X0262000Y0117367D02*
X0262000Y0116667D01*
X0262000Y0117367D02*
X0269200Y0124567D01*
X0273700Y0124567D01*
X0216000Y0072167D02*
X0215200Y0071467D01*
X0200800Y0057067D01*
X0175600Y0020167D02*
X0171100Y0015667D01*
X0167500Y0015667D01*
X0167000Y0015167D01*
X0151300Y0014767D02*
X0147700Y0014767D01*
X0147000Y0015167D01*
X0136200Y0065867D02*
X0129600Y0069467D01*
X0126100Y0071467D01*
X0126000Y0072167D01*
X0046000Y0078667D02*
X0039700Y0072367D01*
X0036100Y0072367D01*
X0036000Y0072167D01*
D17*
X0140400Y0078667D03*
X0200800Y0057067D03*
X0034300Y0152467D03*
M02*
