%
M48
M72
T01C0.0200
T02C0.0315
T03C0.0320
T04C0.0354
T05C0.0380
T06C0.0400
T07C0.1180
%
T01
X38820Y16260
T02
X14595Y14420
X13808Y14420
X13808Y13633
X14595Y13633
X14595Y12846
X13808Y12846
X13808Y12058
X14595Y12058
X14595Y11271
X13808Y11271
X13808Y10483
X14595Y10483
T03
X17023Y5692
X21023Y5692
T04
X4547Y4928
X4547Y5928
X4547Y6928
X4547Y7928
X13497Y7928
X13497Y6928
X13497Y5928
X13497Y4928
X35717Y15093
X36717Y15093
X37717Y15093
X38717Y15093
X39717Y15093
X39717Y21193
X38717Y21193
X37717Y21193
X36717Y21193
X35717Y21193
T05
X35783Y8396
X34783Y8396
X33783Y8396
X32783Y8396
X31783Y8396
X30783Y8396
X29783Y8396
X28783Y8396
X27783Y8396
X26783Y8396
X26783Y7396
X26783Y6396
X26783Y5396
X26783Y4396
X26783Y3396
X26783Y2396
X27783Y2396
X28783Y2396
X29783Y2396
X30783Y2396
X31783Y2396
X32783Y2396
X33783Y2396
X34783Y2396
X35783Y2396
X36783Y2396
X37783Y2396
X38783Y2396
X39783Y2396
X39783Y8396
X38783Y8396
X37783Y8396
X36783Y8396
T06
X29403Y12516
X28403Y12516
X27403Y12516
X19131Y16392
X19131Y17392
X19131Y18392
X19131Y19392
X19131Y20392
X19131Y21392
X19131Y22392
X19131Y23392
X10500Y22100
X10500Y21100
X10500Y20100
X10500Y19100
X6912Y16528
X5912Y16528
X5912Y15528
X6912Y15528
X6912Y14528
X5912Y14528
X5912Y13528
X6912Y13528
X6912Y12528
X5912Y12528
X17018Y3152
X18018Y3152
X20214Y3196
X21214Y3196
X23194Y3216
X24194Y3216
X23732Y5626
X22732Y5626
X29415Y21204
X30415Y21204
T07
X34923Y11948
X37285Y11948
X36104Y10097
M30
