G75*
%MOIN*%
%OFA0B0*%
%FSLAX25Y25*%
%IPPOS*%
%LPD*%
%AMOC8*
5,1,8,0,0,1.08239X$1,22.5*
%
%ADD10C,0.00400*%
%ADD11C,0.00300*%
%ADD12C,0.00500*%
%ADD13C,0.00600*%
%ADD14R,0.15000X0.05000*%
%ADD15R,0.02000X0.08000*%
%ADD16R,0.07500X0.02000*%
D10*
X0072672Y0058251D02*
X0073440Y0057483D01*
X0074974Y0057483D01*
X0075742Y0058251D01*
X0077276Y0057483D02*
X0077276Y0062087D01*
X0075742Y0061320D02*
X0074974Y0062087D01*
X0073440Y0062087D01*
X0072672Y0061320D01*
X0072672Y0058251D01*
X0077276Y0059785D02*
X0078044Y0060553D01*
X0079578Y0060553D01*
X0080346Y0059785D01*
X0080346Y0057483D01*
X0081880Y0057483D02*
X0081880Y0060553D01*
X0081880Y0059018D02*
X0083415Y0060553D01*
X0084182Y0060553D01*
X0085717Y0059785D02*
X0085717Y0058251D01*
X0086484Y0057483D01*
X0088019Y0057483D01*
X0088786Y0058251D01*
X0088786Y0059785D01*
X0088019Y0060553D01*
X0086484Y0060553D01*
X0085717Y0059785D01*
X0090321Y0060553D02*
X0090321Y0057483D01*
X0093390Y0057483D02*
X0093390Y0059785D01*
X0092623Y0060553D01*
X0090321Y0060553D01*
X0094925Y0059785D02*
X0094925Y0058251D01*
X0095692Y0057483D01*
X0097227Y0057483D01*
X0097994Y0058251D01*
X0097994Y0059785D01*
X0097227Y0060553D01*
X0095692Y0060553D01*
X0094925Y0059785D01*
X0099529Y0057483D02*
X0101831Y0057483D01*
X0102598Y0058251D01*
X0102598Y0061320D01*
X0101831Y0062087D01*
X0099529Y0062087D01*
X0099529Y0057483D01*
X0104133Y0058251D02*
X0104133Y0059785D01*
X0104900Y0060553D01*
X0106435Y0060553D01*
X0107202Y0059785D01*
X0107202Y0058251D01*
X0106435Y0057483D01*
X0104900Y0057483D01*
X0104133Y0058251D01*
X0108737Y0060553D02*
X0110271Y0060553D01*
X0109504Y0061320D02*
X0109504Y0058251D01*
X0110271Y0057483D01*
X0116410Y0059018D02*
X0117944Y0057483D01*
X0119479Y0059018D01*
X0119479Y0062087D01*
X0121014Y0061320D02*
X0121781Y0062087D01*
X0123316Y0062087D01*
X0124083Y0061320D01*
X0124083Y0060553D01*
X0121014Y0057483D01*
X0124083Y0057483D01*
X0125618Y0057483D02*
X0126385Y0057483D01*
X0126385Y0058251D01*
X0125618Y0058251D01*
X0125618Y0057483D01*
X0127920Y0057483D02*
X0130989Y0057483D01*
X0129454Y0057483D02*
X0129454Y0062087D01*
X0127920Y0060553D01*
X0116410Y0062087D02*
X0116410Y0059018D01*
X0176227Y0229861D02*
X0175460Y0230629D01*
X0176227Y0229861D02*
X0177762Y0229861D01*
X0178529Y0230629D01*
X0178529Y0232163D01*
X0177762Y0232931D01*
X0176994Y0232931D01*
X0175460Y0232163D01*
X0175460Y0234465D01*
X0178529Y0234465D01*
X0180064Y0234465D02*
X0180064Y0231396D01*
X0181598Y0229861D01*
X0183133Y0231396D01*
X0183133Y0234465D01*
D11*
X0181683Y0222570D02*
X0179831Y0222570D01*
X0179831Y0218867D01*
X0181683Y0218867D01*
X0182300Y0219484D01*
X0182300Y0221952D01*
X0181683Y0222570D01*
X0178617Y0222570D02*
X0178617Y0218867D01*
X0176148Y0222570D01*
X0176148Y0218867D01*
X0174934Y0219484D02*
X0174317Y0218867D01*
X0173082Y0218867D01*
X0172465Y0219484D01*
X0172465Y0221952D01*
X0173082Y0222570D01*
X0174317Y0222570D01*
X0174934Y0221952D01*
X0174934Y0220718D02*
X0173699Y0220718D01*
X0174934Y0220718D02*
X0174934Y0219484D01*
X0126827Y0200853D02*
X0126827Y0198384D01*
X0125592Y0197150D01*
X0124358Y0198384D01*
X0124358Y0200853D01*
X0123143Y0200236D02*
X0123143Y0199619D01*
X0122526Y0199002D01*
X0123143Y0198384D01*
X0123143Y0197767D01*
X0122526Y0197150D01*
X0121292Y0197150D01*
X0120675Y0197767D01*
X0119450Y0197767D02*
X0119450Y0197150D01*
X0118833Y0197150D01*
X0118833Y0197767D01*
X0119450Y0197767D01*
X0117619Y0197767D02*
X0117002Y0197150D01*
X0115767Y0197150D01*
X0115150Y0197767D01*
X0116384Y0199002D02*
X0117002Y0199002D01*
X0117619Y0198384D01*
X0117619Y0197767D01*
X0117002Y0199002D02*
X0117619Y0199619D01*
X0117619Y0200236D01*
X0117002Y0200853D01*
X0115767Y0200853D01*
X0115150Y0200236D01*
X0120675Y0200236D02*
X0121292Y0200853D01*
X0122526Y0200853D01*
X0123143Y0200236D01*
X0122526Y0199002D02*
X0121909Y0199002D01*
X0121516Y0190853D02*
X0123368Y0190853D01*
X0123985Y0190236D01*
X0123985Y0187767D01*
X0123368Y0187150D01*
X0121516Y0187150D01*
X0121516Y0190853D01*
X0120302Y0190853D02*
X0120302Y0187150D01*
X0117833Y0190853D01*
X0117833Y0187150D01*
X0116619Y0187767D02*
X0116619Y0189002D01*
X0115384Y0189002D01*
X0114150Y0190236D02*
X0114150Y0187767D01*
X0114767Y0187150D01*
X0116002Y0187150D01*
X0116619Y0187767D01*
X0116619Y0190236D02*
X0116002Y0190853D01*
X0114767Y0190853D01*
X0114150Y0190236D01*
D12*
X0097550Y0190554D02*
X0097550Y0193556D01*
X0097550Y0195158D02*
X0093046Y0195158D01*
X0094547Y0196659D01*
X0093046Y0198160D01*
X0097550Y0198160D01*
X0097550Y0199762D02*
X0093046Y0199762D01*
X0093046Y0202014D01*
X0093797Y0202764D01*
X0095298Y0202764D01*
X0096049Y0202014D01*
X0096049Y0199762D01*
X0097550Y0204366D02*
X0093046Y0207368D01*
X0093046Y0208970D02*
X0097550Y0208970D01*
X0095298Y0208970D02*
X0095298Y0211972D01*
X0096799Y0213574D02*
X0093046Y0213574D01*
X0093046Y0211972D02*
X0097550Y0211972D01*
X0096799Y0213574D02*
X0097550Y0214324D01*
X0097550Y0215825D01*
X0096799Y0216576D01*
X0093046Y0216576D01*
X0093046Y0218177D02*
X0094547Y0219679D01*
X0093046Y0221180D01*
X0097550Y0221180D01*
X0097550Y0222781D02*
X0097550Y0224283D01*
X0097550Y0223532D02*
X0093046Y0223532D01*
X0093046Y0222781D02*
X0093046Y0224283D01*
X0093046Y0225851D02*
X0093046Y0228103D01*
X0093797Y0228853D01*
X0096799Y0228853D01*
X0097550Y0228103D01*
X0097550Y0225851D01*
X0093046Y0225851D01*
X0093046Y0218177D02*
X0097550Y0218177D01*
X0093046Y0193556D02*
X0093046Y0190554D01*
X0097550Y0190554D01*
X0095298Y0190554D02*
X0095298Y0192055D01*
X0093046Y0188953D02*
X0093046Y0185950D01*
X0093046Y0187451D02*
X0097550Y0187451D01*
X0198761Y0218754D02*
X0198761Y0221005D01*
X0199512Y0221756D01*
X0201013Y0221756D01*
X0201764Y0221005D01*
X0201764Y0218754D01*
X0203265Y0218754D02*
X0198761Y0218754D01*
X0198761Y0223357D02*
X0200262Y0224859D01*
X0198761Y0226360D01*
X0203265Y0226360D01*
X0203265Y0227961D02*
X0200262Y0230964D01*
X0199512Y0230964D01*
X0198761Y0230213D01*
X0198761Y0228712D01*
X0199512Y0227961D01*
X0203265Y0227961D02*
X0203265Y0230964D01*
X0203265Y0232565D02*
X0203265Y0233316D01*
X0202514Y0233316D01*
X0202514Y0232565D01*
X0203265Y0232565D01*
X0202514Y0234867D02*
X0203265Y0235618D01*
X0203265Y0237119D01*
X0202514Y0237870D01*
X0201013Y0237870D01*
X0200262Y0237119D01*
X0200262Y0236369D01*
X0201013Y0234867D01*
X0198761Y0234867D01*
X0198761Y0237870D01*
X0198761Y0223357D02*
X0203265Y0223357D01*
X0074444Y0087283D02*
X0074449Y0087725D01*
X0074466Y0088168D01*
X0074493Y0088609D01*
X0074531Y0089050D01*
X0074580Y0089490D01*
X0074639Y0089928D01*
X0074709Y0090365D01*
X0074790Y0090800D01*
X0074882Y0091233D01*
X0074984Y0091663D01*
X0075097Y0092091D01*
X0075220Y0092516D01*
X0075354Y0092938D01*
X0075498Y0093356D01*
X0075652Y0093771D01*
X0075816Y0094182D01*
X0075991Y0094589D01*
X0076175Y0094991D01*
X0076369Y0095389D01*
X0076573Y0095781D01*
X0076786Y0096169D01*
X0077009Y0096551D01*
X0077241Y0096928D01*
X0077482Y0097299D01*
X0077733Y0097664D01*
X0077992Y0098022D01*
X0078260Y0098374D01*
X0078536Y0098720D01*
X0078821Y0099058D01*
X0079114Y0099390D01*
X0079415Y0099714D01*
X0079724Y0100031D01*
X0080041Y0100340D01*
X0080365Y0100641D01*
X0080697Y0100934D01*
X0081035Y0101219D01*
X0081381Y0101495D01*
X0081733Y0101763D01*
X0082091Y0102022D01*
X0082456Y0102273D01*
X0082827Y0102514D01*
X0083204Y0102746D01*
X0083586Y0102969D01*
X0083974Y0103182D01*
X0084366Y0103386D01*
X0084764Y0103580D01*
X0085166Y0103764D01*
X0085573Y0103939D01*
X0085984Y0104103D01*
X0086399Y0104257D01*
X0086817Y0104401D01*
X0087239Y0104535D01*
X0087664Y0104658D01*
X0088092Y0104771D01*
X0088522Y0104873D01*
X0088955Y0104965D01*
X0089390Y0105046D01*
X0089827Y0105116D01*
X0090265Y0105175D01*
X0090705Y0105224D01*
X0091146Y0105262D01*
X0091587Y0105289D01*
X0092030Y0105306D01*
X0092472Y0105311D01*
X0092914Y0105306D01*
X0093357Y0105289D01*
X0093798Y0105262D01*
X0094239Y0105224D01*
X0094679Y0105175D01*
X0095117Y0105116D01*
X0095554Y0105046D01*
X0095989Y0104965D01*
X0096422Y0104873D01*
X0096852Y0104771D01*
X0097280Y0104658D01*
X0097705Y0104535D01*
X0098127Y0104401D01*
X0098545Y0104257D01*
X0098960Y0104103D01*
X0099371Y0103939D01*
X0099778Y0103764D01*
X0100180Y0103580D01*
X0100578Y0103386D01*
X0100970Y0103182D01*
X0101358Y0102969D01*
X0101740Y0102746D01*
X0102117Y0102514D01*
X0102488Y0102273D01*
X0102853Y0102022D01*
X0103211Y0101763D01*
X0103563Y0101495D01*
X0103909Y0101219D01*
X0104247Y0100934D01*
X0104579Y0100641D01*
X0104903Y0100340D01*
X0105220Y0100031D01*
X0105529Y0099714D01*
X0105830Y0099390D01*
X0106123Y0099058D01*
X0106408Y0098720D01*
X0106684Y0098374D01*
X0106952Y0098022D01*
X0107211Y0097664D01*
X0107462Y0097299D01*
X0107703Y0096928D01*
X0107935Y0096551D01*
X0108158Y0096169D01*
X0108371Y0095781D01*
X0108575Y0095389D01*
X0108769Y0094991D01*
X0108953Y0094589D01*
X0109128Y0094182D01*
X0109292Y0093771D01*
X0109446Y0093356D01*
X0109590Y0092938D01*
X0109724Y0092516D01*
X0109847Y0092091D01*
X0109960Y0091663D01*
X0110062Y0091233D01*
X0110154Y0090800D01*
X0110235Y0090365D01*
X0110305Y0089928D01*
X0110364Y0089490D01*
X0110413Y0089050D01*
X0110451Y0088609D01*
X0110478Y0088168D01*
X0110495Y0087725D01*
X0110500Y0087283D01*
X0110495Y0086841D01*
X0110478Y0086398D01*
X0110451Y0085957D01*
X0110413Y0085516D01*
X0110364Y0085076D01*
X0110305Y0084638D01*
X0110235Y0084201D01*
X0110154Y0083766D01*
X0110062Y0083333D01*
X0109960Y0082903D01*
X0109847Y0082475D01*
X0109724Y0082050D01*
X0109590Y0081628D01*
X0109446Y0081210D01*
X0109292Y0080795D01*
X0109128Y0080384D01*
X0108953Y0079977D01*
X0108769Y0079575D01*
X0108575Y0079177D01*
X0108371Y0078785D01*
X0108158Y0078397D01*
X0107935Y0078015D01*
X0107703Y0077638D01*
X0107462Y0077267D01*
X0107211Y0076902D01*
X0106952Y0076544D01*
X0106684Y0076192D01*
X0106408Y0075846D01*
X0106123Y0075508D01*
X0105830Y0075176D01*
X0105529Y0074852D01*
X0105220Y0074535D01*
X0104903Y0074226D01*
X0104579Y0073925D01*
X0104247Y0073632D01*
X0103909Y0073347D01*
X0103563Y0073071D01*
X0103211Y0072803D01*
X0102853Y0072544D01*
X0102488Y0072293D01*
X0102117Y0072052D01*
X0101740Y0071820D01*
X0101358Y0071597D01*
X0100970Y0071384D01*
X0100578Y0071180D01*
X0100180Y0070986D01*
X0099778Y0070802D01*
X0099371Y0070627D01*
X0098960Y0070463D01*
X0098545Y0070309D01*
X0098127Y0070165D01*
X0097705Y0070031D01*
X0097280Y0069908D01*
X0096852Y0069795D01*
X0096422Y0069693D01*
X0095989Y0069601D01*
X0095554Y0069520D01*
X0095117Y0069450D01*
X0094679Y0069391D01*
X0094239Y0069342D01*
X0093798Y0069304D01*
X0093357Y0069277D01*
X0092914Y0069260D01*
X0092472Y0069255D01*
X0092030Y0069260D01*
X0091587Y0069277D01*
X0091146Y0069304D01*
X0090705Y0069342D01*
X0090265Y0069391D01*
X0089827Y0069450D01*
X0089390Y0069520D01*
X0088955Y0069601D01*
X0088522Y0069693D01*
X0088092Y0069795D01*
X0087664Y0069908D01*
X0087239Y0070031D01*
X0086817Y0070165D01*
X0086399Y0070309D01*
X0085984Y0070463D01*
X0085573Y0070627D01*
X0085166Y0070802D01*
X0084764Y0070986D01*
X0084366Y0071180D01*
X0083974Y0071384D01*
X0083586Y0071597D01*
X0083204Y0071820D01*
X0082827Y0072052D01*
X0082456Y0072293D01*
X0082091Y0072544D01*
X0081733Y0072803D01*
X0081381Y0073071D01*
X0081035Y0073347D01*
X0080697Y0073632D01*
X0080365Y0073925D01*
X0080041Y0074226D01*
X0079724Y0074535D01*
X0079415Y0074852D01*
X0079114Y0075176D01*
X0078821Y0075508D01*
X0078536Y0075846D01*
X0078260Y0076192D01*
X0077992Y0076544D01*
X0077733Y0076902D01*
X0077482Y0077267D01*
X0077241Y0077638D01*
X0077009Y0078015D01*
X0076786Y0078397D01*
X0076573Y0078785D01*
X0076369Y0079177D01*
X0076175Y0079575D01*
X0075991Y0079977D01*
X0075816Y0080384D01*
X0075652Y0080795D01*
X0075498Y0081210D01*
X0075354Y0081628D01*
X0075220Y0082050D01*
X0075097Y0082475D01*
X0074984Y0082903D01*
X0074882Y0083333D01*
X0074790Y0083766D01*
X0074709Y0084201D01*
X0074639Y0084638D01*
X0074580Y0085076D01*
X0074531Y0085516D01*
X0074493Y0085957D01*
X0074466Y0086398D01*
X0074449Y0086841D01*
X0074444Y0087283D01*
X0165131Y0043474D02*
X0165131Y0038970D01*
X0168134Y0038970D01*
X0169735Y0038970D02*
X0172738Y0038970D01*
X0174339Y0038970D02*
X0176591Y0038970D01*
X0177342Y0039720D01*
X0177342Y0042723D01*
X0176591Y0043474D01*
X0174339Y0043474D01*
X0174339Y0038970D01*
X0171236Y0041222D02*
X0169735Y0041222D01*
X0169735Y0043474D02*
X0169735Y0038970D01*
X0169735Y0043474D02*
X0172738Y0043474D01*
X0178943Y0038219D02*
X0181945Y0038219D01*
X0183547Y0038970D02*
X0183547Y0043474D01*
X0185799Y0043474D01*
X0186549Y0042723D01*
X0186549Y0041222D01*
X0185799Y0040471D01*
X0183547Y0040471D01*
X0185048Y0040471D02*
X0186549Y0038970D01*
X0188151Y0038219D02*
X0191153Y0038219D01*
X0192755Y0038970D02*
X0195757Y0038970D01*
X0197092Y0039411D02*
X0200094Y0039411D01*
X0200361Y0038970D02*
X0198109Y0041222D01*
X0197359Y0040471D02*
X0200361Y0043474D01*
X0201696Y0043164D02*
X0202446Y0043914D01*
X0203948Y0043914D01*
X0204698Y0043164D01*
X0201696Y0040161D01*
X0202446Y0039411D01*
X0203948Y0039411D01*
X0204698Y0040161D01*
X0204698Y0043164D01*
X0206300Y0043914D02*
X0206300Y0039411D01*
X0206300Y0040912D02*
X0209302Y0043914D01*
X0210904Y0043164D02*
X0211654Y0043914D01*
X0213155Y0043914D01*
X0213906Y0043164D01*
X0213906Y0042413D01*
X0210904Y0039411D01*
X0213906Y0039411D01*
X0209302Y0039411D02*
X0207050Y0041663D01*
X0201696Y0040161D02*
X0201696Y0043164D01*
X0198593Y0043914D02*
X0198593Y0039411D01*
X0197359Y0038970D02*
X0197359Y0043474D01*
X0197092Y0042413D02*
X0198593Y0043914D01*
X0198042Y0046671D02*
X0198042Y0051175D01*
X0195790Y0048923D01*
X0198793Y0048923D01*
X0200394Y0048923D02*
X0202646Y0051175D01*
X0202646Y0046671D01*
X0203397Y0048923D02*
X0200394Y0048923D01*
X0204998Y0048923D02*
X0204998Y0047422D01*
X0205749Y0046671D01*
X0207250Y0046671D01*
X0208001Y0047422D01*
X0208001Y0048173D01*
X0207250Y0048923D01*
X0204998Y0048923D01*
X0206499Y0050424D01*
X0208001Y0051175D01*
X0194189Y0048923D02*
X0191186Y0048923D01*
X0193438Y0051175D01*
X0193438Y0046671D01*
X0194256Y0043474D02*
X0194256Y0038970D01*
X0192755Y0041972D02*
X0194256Y0043474D01*
X0189585Y0046671D02*
X0189585Y0051175D01*
X0186582Y0051175D02*
X0189585Y0046671D01*
X0186582Y0046671D02*
X0186582Y0051175D01*
X0183480Y0051175D02*
X0181978Y0049674D01*
X0183480Y0051175D02*
X0183480Y0046671D01*
X0184981Y0046671D02*
X0181978Y0046671D01*
X0181978Y0062171D02*
X0184230Y0062171D01*
X0184981Y0062922D01*
X0184981Y0065924D01*
X0184230Y0066675D01*
X0181978Y0066675D01*
X0181978Y0062171D01*
X0186582Y0062171D02*
X0189585Y0062171D01*
X0188084Y0062171D02*
X0188084Y0066675D01*
X0186582Y0065174D01*
X0222273Y0063710D02*
X0225275Y0063710D01*
X0223774Y0063710D02*
X0223774Y0068214D01*
X0222273Y0066712D01*
X0226877Y0067463D02*
X0226877Y0064460D01*
X0229879Y0067463D01*
X0229879Y0064460D01*
X0229129Y0063710D01*
X0227627Y0063710D01*
X0226877Y0064460D01*
X0226877Y0067463D02*
X0227627Y0068214D01*
X0229129Y0068214D01*
X0229879Y0067463D01*
X0231481Y0067463D02*
X0232231Y0068214D01*
X0233733Y0068214D01*
X0234483Y0067463D01*
X0231481Y0064460D01*
X0232231Y0063710D01*
X0233733Y0063710D01*
X0234483Y0064460D01*
X0234483Y0067463D01*
X0236085Y0068214D02*
X0236085Y0063710D01*
X0236085Y0065211D02*
X0239087Y0068214D01*
X0236835Y0065962D02*
X0239087Y0063710D01*
X0231481Y0064460D02*
X0231481Y0067463D01*
X0232249Y0044111D02*
X0231499Y0043361D01*
X0231499Y0040358D01*
X0234501Y0043361D01*
X0234501Y0040358D01*
X0233751Y0039607D01*
X0232249Y0039607D01*
X0231499Y0040358D01*
X0229897Y0039607D02*
X0226895Y0039607D01*
X0228396Y0039607D02*
X0228396Y0044111D01*
X0226895Y0042610D01*
X0232249Y0044111D02*
X0233751Y0044111D01*
X0234501Y0043361D01*
X0236103Y0044111D02*
X0236103Y0039607D01*
X0236103Y0041109D02*
X0239105Y0044111D01*
X0240707Y0042610D02*
X0242208Y0044111D01*
X0242208Y0039607D01*
X0240707Y0039607D02*
X0243709Y0039607D01*
X0239105Y0039607D02*
X0236853Y0041859D01*
X0245964Y0013385D02*
X0247799Y0011550D01*
X0247799Y0007880D01*
X0249654Y0007880D02*
X0251489Y0007880D01*
X0250571Y0007880D02*
X0250571Y0011550D01*
X0249654Y0011550D01*
X0250571Y0013385D02*
X0250571Y0014302D01*
X0253337Y0011550D02*
X0253337Y0007880D01*
X0253337Y0009715D02*
X0255172Y0011550D01*
X0256089Y0011550D01*
X0263465Y0012467D02*
X0263465Y0008797D01*
X0264383Y0007880D01*
X0266218Y0007880D01*
X0267135Y0008797D01*
X0267135Y0012467D01*
X0266218Y0013385D01*
X0264383Y0013385D01*
X0263465Y0012467D01*
X0265300Y0009715D02*
X0267135Y0007880D01*
X0268990Y0008797D02*
X0268990Y0011550D01*
X0268990Y0008797D02*
X0269908Y0007880D01*
X0272660Y0007880D01*
X0272660Y0011550D01*
X0275432Y0011550D02*
X0277267Y0011550D01*
X0278185Y0010632D01*
X0278185Y0007880D01*
X0275432Y0007880D01*
X0274515Y0008797D01*
X0275432Y0009715D01*
X0278185Y0009715D01*
X0280040Y0007880D02*
X0281875Y0007880D01*
X0280957Y0007880D02*
X0280957Y0013385D01*
X0280040Y0013385D01*
X0283723Y0011550D02*
X0284640Y0011550D01*
X0284640Y0007880D01*
X0283723Y0007880D02*
X0285558Y0007880D01*
X0288323Y0008797D02*
X0288323Y0012467D01*
X0287406Y0011550D02*
X0289241Y0011550D01*
X0291089Y0011550D02*
X0291089Y0008797D01*
X0292007Y0007880D01*
X0294759Y0007880D01*
X0294759Y0006962D02*
X0293841Y0006045D01*
X0292924Y0006045D01*
X0294759Y0006962D02*
X0294759Y0011550D01*
X0289241Y0007880D02*
X0288323Y0008797D01*
X0284640Y0013385D02*
X0284640Y0014302D01*
X0302139Y0012467D02*
X0302139Y0011550D01*
X0303056Y0010632D01*
X0304891Y0010632D01*
X0305808Y0009715D01*
X0305808Y0008797D01*
X0304891Y0007880D01*
X0303056Y0007880D01*
X0302139Y0008797D01*
X0302139Y0012467D02*
X0303056Y0013385D01*
X0304891Y0013385D01*
X0305808Y0012467D01*
X0307663Y0010632D02*
X0308581Y0011550D01*
X0310416Y0011550D01*
X0311333Y0010632D01*
X0311333Y0009715D01*
X0307663Y0009715D01*
X0307663Y0010632D02*
X0307663Y0008797D01*
X0308581Y0007880D01*
X0310416Y0007880D01*
X0313188Y0007880D02*
X0313188Y0011550D01*
X0315940Y0011550D01*
X0316858Y0010632D01*
X0316858Y0007880D01*
X0318713Y0007880D02*
X0321465Y0007880D01*
X0322382Y0008797D01*
X0321465Y0009715D01*
X0319630Y0009715D01*
X0318713Y0010632D01*
X0319630Y0011550D01*
X0322382Y0011550D01*
X0324237Y0010632D02*
X0324237Y0008797D01*
X0325155Y0007880D01*
X0326990Y0007880D01*
X0327907Y0008797D01*
X0327907Y0010632D01*
X0326990Y0011550D01*
X0325155Y0011550D01*
X0324237Y0010632D01*
X0329762Y0009715D02*
X0331597Y0011550D01*
X0332514Y0011550D01*
X0329762Y0011550D02*
X0329762Y0007880D01*
X0339891Y0007880D02*
X0339891Y0013385D01*
X0342643Y0013385D01*
X0343561Y0012467D01*
X0343561Y0010632D01*
X0342643Y0009715D01*
X0339891Y0009715D01*
X0345415Y0008797D02*
X0346333Y0007880D01*
X0348168Y0007880D01*
X0349085Y0008797D01*
X0350940Y0007880D02*
X0353693Y0007880D01*
X0354610Y0008797D01*
X0354610Y0009715D01*
X0353693Y0010632D01*
X0350940Y0010632D01*
X0349085Y0012467D02*
X0348168Y0013385D01*
X0346333Y0013385D01*
X0345415Y0012467D01*
X0345415Y0008797D01*
X0350940Y0007880D02*
X0350940Y0013385D01*
X0353693Y0013385D01*
X0354610Y0012467D01*
X0354610Y0011550D01*
X0353693Y0010632D01*
X0361990Y0010632D02*
X0365659Y0010632D01*
X0367514Y0008797D02*
X0368432Y0008797D01*
X0368432Y0007880D01*
X0367514Y0007880D01*
X0367514Y0008797D01*
X0370277Y0008797D02*
X0370277Y0012467D01*
X0371194Y0013385D01*
X0373029Y0013385D01*
X0373946Y0012467D01*
X0370277Y0008797D01*
X0371194Y0007880D01*
X0373029Y0007880D01*
X0373946Y0008797D01*
X0373946Y0012467D01*
X0381326Y0011550D02*
X0384078Y0011550D01*
X0384996Y0010632D01*
X0384996Y0008797D01*
X0384078Y0007880D01*
X0381326Y0007880D01*
X0381326Y0013385D01*
X0386851Y0011550D02*
X0386851Y0008797D01*
X0387768Y0007880D01*
X0390521Y0007880D01*
X0390521Y0006962D02*
X0389603Y0006045D01*
X0388686Y0006045D01*
X0390521Y0006962D02*
X0390521Y0011550D01*
X0397900Y0013385D02*
X0401570Y0013385D01*
X0399735Y0013385D02*
X0399735Y0007880D01*
X0403425Y0007880D02*
X0403425Y0013385D01*
X0404342Y0011550D02*
X0403425Y0010632D01*
X0404342Y0011550D02*
X0406177Y0011550D01*
X0407095Y0010632D01*
X0407095Y0007880D01*
X0408950Y0008797D02*
X0408950Y0010632D01*
X0409867Y0011550D01*
X0411702Y0011550D01*
X0412619Y0010632D01*
X0412619Y0008797D01*
X0411702Y0007880D01*
X0409867Y0007880D01*
X0408950Y0008797D01*
X0414474Y0007880D02*
X0414474Y0011550D01*
X0415392Y0011550D01*
X0416309Y0010632D01*
X0417227Y0011550D01*
X0418144Y0010632D01*
X0418144Y0007880D01*
X0416309Y0007880D02*
X0416309Y0010632D01*
X0419999Y0008797D02*
X0420917Y0009715D01*
X0423669Y0009715D01*
X0423669Y0010632D02*
X0423669Y0007880D01*
X0420917Y0007880D01*
X0419999Y0008797D01*
X0420917Y0011550D02*
X0422751Y0011550D01*
X0423669Y0010632D01*
X0425524Y0010632D02*
X0426441Y0011550D01*
X0429194Y0011550D01*
X0428276Y0009715D02*
X0426441Y0009715D01*
X0425524Y0010632D01*
X0425524Y0007880D02*
X0428276Y0007880D01*
X0429194Y0008797D01*
X0428276Y0009715D01*
X0436573Y0007880D02*
X0436573Y0013385D01*
X0443015Y0011550D02*
X0444850Y0011550D01*
X0445768Y0010632D01*
X0445768Y0007880D01*
X0443015Y0007880D01*
X0442098Y0008797D01*
X0443015Y0009715D01*
X0445768Y0009715D01*
X0447623Y0011550D02*
X0448540Y0011550D01*
X0448540Y0007880D01*
X0447623Y0007880D02*
X0449458Y0007880D01*
X0448540Y0013385D02*
X0448540Y0014302D01*
X0440243Y0007880D02*
X0436573Y0007880D01*
X0364742Y0007880D02*
X0364742Y0013385D01*
X0361990Y0010632D01*
X0247799Y0010632D02*
X0244129Y0010632D01*
X0244129Y0011550D02*
X0245964Y0013385D01*
X0244129Y0011550D02*
X0244129Y0007880D01*
X0236749Y0009715D02*
X0236749Y0010632D01*
X0235832Y0011550D01*
X0233997Y0011550D01*
X0233080Y0010632D01*
X0233080Y0008797D01*
X0233997Y0007880D01*
X0235832Y0007880D01*
X0236749Y0009715D02*
X0233080Y0009715D01*
X0231225Y0010632D02*
X0231225Y0007880D01*
X0229390Y0007880D02*
X0229390Y0010632D01*
X0230307Y0011550D01*
X0231225Y0010632D01*
X0229390Y0010632D02*
X0228472Y0011550D01*
X0227555Y0011550D01*
X0227555Y0007880D01*
X0225707Y0007880D02*
X0223872Y0007880D01*
X0224789Y0007880D02*
X0224789Y0011550D01*
X0223872Y0011550D01*
X0224789Y0013385D02*
X0224789Y0014302D01*
X0222017Y0013385D02*
X0218347Y0013385D01*
X0220182Y0013385D02*
X0220182Y0007880D01*
X0216492Y0010632D02*
X0212822Y0010632D01*
X0210974Y0007880D02*
X0209139Y0007880D01*
X0210057Y0007880D02*
X0210057Y0013385D01*
X0209139Y0013385D01*
X0207284Y0010632D02*
X0207284Y0007880D01*
X0204532Y0007880D01*
X0203614Y0008797D01*
X0204532Y0009715D01*
X0207284Y0009715D01*
X0207284Y0010632D02*
X0206367Y0011550D01*
X0204532Y0011550D01*
X0201759Y0010632D02*
X0201759Y0009715D01*
X0198090Y0009715D01*
X0198090Y0010632D02*
X0198090Y0008797D01*
X0199007Y0007880D01*
X0200842Y0007880D01*
X0201759Y0010632D02*
X0200842Y0011550D01*
X0199007Y0011550D01*
X0198090Y0010632D01*
X0196235Y0010632D02*
X0195317Y0009715D01*
X0192565Y0009715D01*
X0194400Y0009715D02*
X0196235Y0007880D01*
X0196235Y0010632D02*
X0196235Y0012467D01*
X0195317Y0013385D01*
X0192565Y0013385D01*
X0192565Y0007880D01*
D13*
X0199642Y0026961D02*
X0204642Y0026961D01*
X0207142Y0029461D01*
X0209642Y0026961D01*
X0214642Y0026961D01*
X0217142Y0029461D01*
X0217142Y0034461D01*
X0214642Y0036961D01*
X0209642Y0036961D01*
X0207142Y0034461D01*
X0207142Y0029461D01*
X0207142Y0034461D02*
X0204642Y0036961D01*
X0199642Y0036961D01*
X0197142Y0034461D01*
X0197142Y0029461D01*
X0199642Y0026961D01*
X0185181Y0029020D02*
X0185181Y0034020D01*
X0182681Y0036520D01*
X0177681Y0036520D01*
X0175181Y0034020D01*
X0175181Y0029020D01*
X0177681Y0026520D01*
X0182681Y0026520D01*
X0185181Y0029020D01*
X0175181Y0029020D02*
X0172681Y0026520D01*
X0167681Y0026520D01*
X0165181Y0029020D01*
X0165181Y0034020D01*
X0167681Y0036520D01*
X0172681Y0036520D01*
X0175181Y0034020D01*
X0182228Y0052921D02*
X0198228Y0052921D01*
X0198288Y0052923D01*
X0198349Y0052928D01*
X0198408Y0052937D01*
X0198467Y0052950D01*
X0198526Y0052966D01*
X0198583Y0052986D01*
X0198638Y0053009D01*
X0198693Y0053036D01*
X0198745Y0053065D01*
X0198796Y0053098D01*
X0198845Y0053134D01*
X0198891Y0053172D01*
X0198935Y0053214D01*
X0198977Y0053258D01*
X0199015Y0053304D01*
X0199051Y0053353D01*
X0199084Y0053404D01*
X0199113Y0053456D01*
X0199140Y0053511D01*
X0199163Y0053566D01*
X0199183Y0053623D01*
X0199199Y0053682D01*
X0199212Y0053741D01*
X0199221Y0053800D01*
X0199226Y0053861D01*
X0199228Y0053921D01*
X0199228Y0059921D01*
X0199226Y0059981D01*
X0199221Y0060042D01*
X0199212Y0060101D01*
X0199199Y0060160D01*
X0199183Y0060219D01*
X0199163Y0060276D01*
X0199140Y0060331D01*
X0199113Y0060386D01*
X0199084Y0060438D01*
X0199051Y0060489D01*
X0199015Y0060538D01*
X0198977Y0060584D01*
X0198935Y0060628D01*
X0198891Y0060670D01*
X0198845Y0060708D01*
X0198796Y0060744D01*
X0198745Y0060777D01*
X0198693Y0060806D01*
X0198638Y0060833D01*
X0198583Y0060856D01*
X0198526Y0060876D01*
X0198467Y0060892D01*
X0198408Y0060905D01*
X0198349Y0060914D01*
X0198288Y0060919D01*
X0198228Y0060921D01*
X0182228Y0060921D01*
X0182168Y0060919D01*
X0182107Y0060914D01*
X0182048Y0060905D01*
X0181989Y0060892D01*
X0181930Y0060876D01*
X0181873Y0060856D01*
X0181818Y0060833D01*
X0181763Y0060806D01*
X0181711Y0060777D01*
X0181660Y0060744D01*
X0181611Y0060708D01*
X0181565Y0060670D01*
X0181521Y0060628D01*
X0181479Y0060584D01*
X0181441Y0060538D01*
X0181405Y0060489D01*
X0181372Y0060438D01*
X0181343Y0060386D01*
X0181316Y0060331D01*
X0181293Y0060276D01*
X0181273Y0060219D01*
X0181257Y0060160D01*
X0181244Y0060101D01*
X0181235Y0060042D01*
X0181230Y0059981D01*
X0181228Y0059921D01*
X0181228Y0053921D01*
X0181230Y0053861D01*
X0181235Y0053800D01*
X0181244Y0053741D01*
X0181257Y0053682D01*
X0181273Y0053623D01*
X0181293Y0053566D01*
X0181316Y0053511D01*
X0181343Y0053456D01*
X0181372Y0053404D01*
X0181405Y0053353D01*
X0181441Y0053304D01*
X0181479Y0053258D01*
X0181521Y0053214D01*
X0181565Y0053172D01*
X0181611Y0053134D01*
X0181660Y0053098D01*
X0181711Y0053065D01*
X0181763Y0053036D01*
X0181818Y0053009D01*
X0181873Y0052986D01*
X0181930Y0052966D01*
X0181989Y0052950D01*
X0182048Y0052937D01*
X0182107Y0052928D01*
X0182168Y0052923D01*
X0182228Y0052921D01*
X0190228Y0054421D02*
X0190228Y0056921D01*
X0190228Y0059421D01*
X0190228Y0056921D02*
X0194228Y0059421D01*
X0194228Y0054421D01*
X0190228Y0056921D01*
X0196228Y0056921D01*
X0190228Y0056921D02*
X0187728Y0056921D01*
X0222323Y0058760D02*
X0222323Y0053760D01*
X0224823Y0051260D01*
X0229823Y0051260D01*
X0232323Y0053760D01*
X0234823Y0051260D01*
X0239823Y0051260D01*
X0242323Y0053760D01*
X0242323Y0058760D01*
X0239823Y0061260D01*
X0234823Y0061260D01*
X0232323Y0058760D01*
X0232323Y0053760D01*
X0232323Y0058760D02*
X0229823Y0061260D01*
X0224823Y0061260D01*
X0222323Y0058760D01*
X0229445Y0037157D02*
X0226945Y0034657D01*
X0226945Y0029657D01*
X0229445Y0027157D01*
X0234445Y0027157D01*
X0236945Y0029657D01*
X0239445Y0027157D01*
X0244445Y0027157D01*
X0246945Y0029657D01*
X0246945Y0034657D01*
X0244445Y0037157D01*
X0239445Y0037157D01*
X0236945Y0034657D01*
X0236945Y0029657D01*
X0236945Y0034657D02*
X0234445Y0037157D01*
X0229445Y0037157D01*
X0193815Y0158921D02*
X0188815Y0158921D01*
X0186315Y0161421D01*
X0186315Y0166421D01*
X0188815Y0168921D01*
X0186315Y0171421D01*
X0186315Y0176421D01*
X0188815Y0178921D01*
X0186315Y0181421D01*
X0186315Y0186421D01*
X0188815Y0188921D01*
X0186315Y0191421D01*
X0186315Y0196421D01*
X0188815Y0198921D01*
X0186315Y0201421D01*
X0186315Y0206421D01*
X0188815Y0208921D01*
X0186315Y0211421D01*
X0186315Y0216421D01*
X0188815Y0218921D01*
X0186315Y0221421D01*
X0186315Y0226421D01*
X0188815Y0228921D01*
X0186315Y0231421D01*
X0186315Y0236421D01*
X0188815Y0238921D01*
X0193815Y0238921D01*
X0196315Y0236421D01*
X0196315Y0231421D01*
X0193815Y0228921D01*
X0196315Y0226421D01*
X0196315Y0221421D01*
X0193815Y0218921D01*
X0188815Y0218921D01*
X0193815Y0218921D02*
X0196315Y0216421D01*
X0196315Y0211421D01*
X0193815Y0208921D01*
X0196315Y0206421D01*
X0196315Y0201421D01*
X0193815Y0198921D01*
X0196315Y0196421D01*
X0196315Y0191421D01*
X0193815Y0188921D01*
X0188815Y0188921D01*
X0193815Y0188921D02*
X0196315Y0186421D01*
X0196315Y0181421D01*
X0193815Y0178921D01*
X0196315Y0176421D01*
X0196315Y0171421D01*
X0193815Y0168921D01*
X0196315Y0166421D01*
X0196315Y0161421D01*
X0193815Y0158921D01*
X0193815Y0168921D02*
X0188815Y0168921D01*
X0188815Y0178921D02*
X0193815Y0178921D01*
X0193815Y0198921D02*
X0188815Y0198921D01*
X0188815Y0208921D02*
X0193815Y0208921D01*
X0193815Y0228921D02*
X0188815Y0228921D01*
X0110000Y0223500D02*
X0110000Y0218500D01*
X0107500Y0216000D01*
X0110000Y0213500D01*
X0110000Y0208500D01*
X0107500Y0206000D01*
X0110000Y0203500D01*
X0110000Y0198500D01*
X0107500Y0196000D01*
X0110000Y0193500D01*
X0110000Y0188500D01*
X0107500Y0186000D01*
X0102500Y0186000D01*
X0100000Y0188500D01*
X0100000Y0193500D01*
X0102500Y0196000D01*
X0100000Y0198500D01*
X0100000Y0203500D01*
X0102500Y0206000D01*
X0107500Y0206000D01*
X0102500Y0206000D02*
X0100000Y0208500D01*
X0100000Y0213500D01*
X0102500Y0216000D01*
X0100000Y0218500D01*
X0100000Y0223500D01*
X0102500Y0226000D01*
X0107500Y0226000D01*
X0110000Y0223500D01*
X0107500Y0216000D02*
X0102500Y0216000D01*
X0102500Y0196000D02*
X0107500Y0196000D01*
D14*
X0079972Y0049783D03*
X0104972Y0049783D03*
D15*
X0183728Y0056921D03*
D16*
X0177478Y0056921D03*
X0202978Y0056921D03*
M02*
