G75*
%MOIN*%
%OFA0B0*%
%FSLAX25Y25*%
%IPPOS*%
%LPD*%
%AMOC8*
5,1,8,0,0,1.08239X$1,22.5*
%
%ADD10C,0.07200*%
%ADD11C,0.06400*%
%ADD12OC8,0.07200*%
%ADD13C,0.17800*%
%ADD14C,0.07000*%
%ADD15R,0.06743X0.06743*%
%ADD16C,0.06400*%
D10*
X0170181Y0028320D02*
X0170181Y0034720D01*
X0180181Y0034720D02*
X0180181Y0028320D01*
X0202142Y0028761D02*
X0202142Y0035161D01*
X0212142Y0035161D02*
X0212142Y0028761D01*
X0231945Y0028957D02*
X0231945Y0035357D01*
X0241945Y0035357D02*
X0241945Y0028957D01*
X0237323Y0053060D02*
X0237323Y0059460D01*
X0227323Y0059460D02*
X0227323Y0053060D01*
X0274031Y0121957D02*
X0274031Y0128357D01*
X0284031Y0128357D02*
X0284031Y0121957D01*
X0294031Y0121957D02*
X0294031Y0128357D01*
X0194515Y0163921D02*
X0188115Y0163921D01*
X0188115Y0173921D02*
X0194515Y0173921D01*
X0194515Y0183921D02*
X0188115Y0183921D01*
X0188115Y0193921D02*
X0194515Y0193921D01*
X0194515Y0203921D02*
X0188115Y0203921D01*
X0188115Y0213921D02*
X0194515Y0213921D01*
X0194515Y0223921D02*
X0188115Y0223921D01*
X0188115Y0233921D02*
X0194515Y0233921D01*
X0108200Y0221000D02*
X0101800Y0221000D01*
X0101800Y0211000D02*
X0108200Y0211000D01*
X0108200Y0201000D02*
X0101800Y0201000D01*
X0101800Y0191000D02*
X0108200Y0191000D01*
X0294150Y0208839D02*
X0294150Y0215239D01*
X0304150Y0215239D02*
X0304150Y0208839D01*
D11*
X0145953Y0144205D03*
X0138079Y0144205D03*
X0138079Y0136331D03*
X0145953Y0136331D03*
X0145953Y0128457D03*
X0138079Y0128457D03*
X0138079Y0120583D03*
X0145953Y0120583D03*
X0145953Y0112709D03*
X0138079Y0112709D03*
X0138079Y0104835D03*
X0145953Y0104835D03*
D12*
X0069118Y0125276D03*
X0059118Y0125276D03*
X0059118Y0135276D03*
X0069118Y0135276D03*
X0069118Y0145276D03*
X0059118Y0145276D03*
X0059118Y0155276D03*
X0069118Y0155276D03*
X0069118Y0165276D03*
X0059118Y0165276D03*
D13*
X0349228Y0119476D03*
X0372850Y0119476D03*
X0361039Y0100972D03*
D14*
X0357827Y0083961D03*
X0347827Y0083961D03*
X0337827Y0083961D03*
X0327827Y0083961D03*
X0317827Y0083961D03*
X0307827Y0083961D03*
X0297827Y0083961D03*
X0287827Y0083961D03*
X0277827Y0083961D03*
X0267827Y0083961D03*
X0267827Y0073961D03*
X0267827Y0063961D03*
X0267827Y0053961D03*
X0267827Y0043961D03*
X0267827Y0033961D03*
X0267827Y0023961D03*
X0277827Y0023961D03*
X0287827Y0023961D03*
X0297827Y0023961D03*
X0307827Y0023961D03*
X0317827Y0023961D03*
X0327827Y0023961D03*
X0337827Y0023961D03*
X0347827Y0023961D03*
X0357827Y0023961D03*
X0367827Y0023961D03*
X0377827Y0023961D03*
X0387827Y0023961D03*
X0397827Y0023961D03*
X0397827Y0083961D03*
X0387827Y0083961D03*
X0377827Y0083961D03*
X0367827Y0083961D03*
D15*
X0045472Y0049283D03*
X0045472Y0059283D03*
X0045472Y0069283D03*
X0045472Y0079283D03*
X0134972Y0079283D03*
X0134972Y0069283D03*
X0134972Y0059283D03*
X0134972Y0049283D03*
X0357165Y0150925D03*
X0367165Y0150925D03*
X0377165Y0150925D03*
X0387165Y0150925D03*
X0397165Y0150925D03*
X0397165Y0211925D03*
X0387165Y0211925D03*
X0377165Y0211925D03*
X0367165Y0211925D03*
X0357165Y0211925D03*
D16*
X0213028Y0056921D02*
X0207428Y0056921D01*
X0173028Y0056921D02*
X0167428Y0056921D01*
M02*
